<?xml version="1.0" encoding="UTF-8"?>
<!DOCTYPE svg PUBLIC "-//W3C//DTD SVG 1.0//EN" "http://www.w3.org/TR/2001/REC-SVG-20010904/DTD/svg10.dtd">
<!-- Creator: CorelDRAW 2019 (64-Bit Evaluation Version) -->
<svg xmlns="http://www.w3.org/2000/svg" xml:space="preserve" width="99px" height="48px" version="1.0" style="shape-rendering:geometricPrecision; text-rendering:geometricPrecision; image-rendering:optimizeQuality; fill-rule:evenodd; clip-rule:evenodd"
viewBox="0 0 5.05 2.46"
 xmlns:xlink="http://www.w3.org/1999/xlink">
 <defs>
  <style type="text/css">
   <![CDATA[
    .fil1 {fill:#FEFEFE}
    .fil0 {fill:#DB2224}
    .fil3 {fill:#61A375}
    .fil2 {fill:#3459A3}
    .fil5 {fill:#898989;fill-rule:nonzero}
    .fil6 {fill:#FFED00;fill-rule:nonzero}
    .fil7 {fill:#61A375;fill-rule:nonzero}
    .fil4 {fill:#3459A3;fill-rule:nonzero}
   ]]>
  </style>
 </defs>
 <g id="Layer_x0020_1">
  <metadata id="CorelCorpID_0Corel-Layer"/>
  <g id="_2642521687344">
   <path class="fil0" d="M2.26 0.84l-0.58 0 -0.6 0.4c0.12,0.16 0.31,0.26 0.53,0.26 0.36,0 0.65,-0.3 0.65,-0.66z"/>
   <path class="fil1" d="M1.68 0.84l0.58 0c0,-0.36 -0.29,-0.66 -0.65,-0.66 -0.22,0 -0.41,0.1 -0.53,0.26l0.6 0.4z"/>
   <path class="fil2" d="M1.68 0.84l-0.6 -0.4c-0.08,0.11 -0.13,0.25 -0.13,0.4 0,0.15 0.05,0.29 0.13,0.4l0.6 -0.4z"/>
  </g>
  <polygon class="fil3" points="0,0.1 0.49,0.29 0.99,0.1 1.12,0.15 1.03,0.47 0.94,0.91 1,1.25 1.23,1.48 1.75,1.55 2.13,1.49 2.05,1.91 2.22,2.33 1.52,2.35 0.97,2.17 0.43,2.27 0.08,2.14 0.25,1.58 0,1.09 0.19,0.6 "/>
  <polygon class="fil4" points="0.77,1.75 1.27,1.97 1.82,1.9 1.95,2.34 1.78,2.34 1.71,2.08 1.25,2.14 0.71,1.9 "/>
  <path class="fil5" d="M1.61 0c0.23,0 0.44,0.09 0.59,0.25 0.15,0.15 0.25,0.36 0.25,0.59 0,0.23 -0.1,0.44 -0.25,0.6 -0.15,0.15 -0.36,0.24 -0.59,0.24 -0.21,0 -0.39,-0.07 -0.54,-0.19l-0.11 0.11 0 0.12 -0.72 0.72 -0.23 -0.24 0.72 -0.71 0.12 0 0.11 -0.11c-0.12,-0.15 -0.2,-0.33 -0.2,-0.54 0,-0.23 0.1,-0.44 0.25,-0.59 0.15,-0.16 0.36,-0.25 0.6,-0.25zm0.42 0.41c-0.11,-0.11 -0.26,-0.17 -0.42,-0.17 -0.17,0 -0.32,0.06 -0.43,0.17 -0.11,0.11 -0.18,0.26 -0.18,0.43 0,0.17 0.07,0.32 0.18,0.43 0.11,0.11 0.26,0.18 0.43,0.18 0.16,0 0.31,-0.07 0.42,-0.18 0.11,-0.11 0.18,-0.26 0.18,-0.43 0,-0.17 -0.07,-0.32 -0.18,-0.43z"/>
  <polygon class="fil6" points="0.56,0.27 0.44,0.58 0.56,0.86 0.37,1.29 0.05,1.18 0,1.09 0.01,1.06 0.31,1.16 0.44,0.86 0.33,0.58 0.44,0.27 0.49,0.29 "/>
  <path class="fil7" d="M3.12 0.6c0.04,0 0.07,-0.01 0.1,-0.04 0.02,-0.03 0.04,-0.08 0.04,-0.14 0,-0.04 -0.01,-0.07 -0.02,-0.1 -0.01,-0.03 -0.03,-0.05 -0.05,-0.07 -0.02,-0.01 -0.05,-0.02 -0.07,-0.02 -0.05,0 -0.08,0.01 -0.11,0.04 -0.02,0.03 -0.04,0.08 -0.04,0.15 0,0.03 0.01,0.07 0.02,0.09 0.01,0.03 0.03,0.05 0.05,0.07 0.02,0.02 0.05,0.02 0.08,0.02zm-0.27 -0.18c0,-0.06 0.01,-0.11 0.03,-0.15 0.02,-0.05 0.05,-0.08 0.1,-0.1 0.04,-0.03 0.08,-0.04 0.14,-0.04 0.05,0 0.09,0.01 0.13,0.03 0.04,0.02 0.08,0.05 0.1,0.1 0.02,0.04 0.04,0.09 0.04,0.16 0,0.05 -0.02,0.11 -0.04,0.15 -0.02,0.04 -0.05,0.07 -0.09,0.1 -0.04,0.02 -0.09,0.03 -0.14,0.03 -0.05,0 -0.1,-0.01 -0.14,-0.03 -0.04,-0.02 -0.07,-0.05 -0.1,-0.09 -0.02,-0.05 -0.03,-0.1 -0.03,-0.16zm0.72 -0.09c0.03,-0.01 0.05,-0.02 0.07,-0.03 0.02,-0.01 0.04,-0.01 0.06,-0.01 0.03,0 0.05,0.01 0.07,0.02 0.03,0.02 0.04,0.04 0.06,0.07 0.01,0.02 0.02,0.06 0.02,0.1 0,0.04 -0.01,0.08 -0.03,0.12 -0.02,0.03 -0.04,0.06 -0.08,0.07 -0.03,0.02 -0.07,0.03 -0.11,0.03 -0.02,0 -0.04,0 -0.06,0l0 0.16 -0.11 0 0 -0.56 0.11 0 0 0.03zm0 0.27c0.03,0.01 0.05,0.02 0.07,0.02 0.03,0 0.05,-0.01 0.07,-0.04 0.02,-0.02 0.03,-0.05 0.03,-0.09 0,-0.04 -0.01,-0.06 -0.02,-0.08 -0.02,-0.02 -0.04,-0.03 -0.06,-0.03 -0.02,0 -0.03,0 -0.04,0.01 -0.02,0.01 -0.03,0.01 -0.05,0.02l0 0.19zm0.33 -0.1c0,-0.05 0.01,-0.08 0.03,-0.12 0.02,-0.03 0.04,-0.05 0.07,-0.07 0.03,-0.01 0.07,-0.02 0.1,-0.02 0.05,0 0.1,0.01 0.12,0.05 0.03,0.03 0.04,0.07 0.04,0.12 0,0.02 0,0.04 0,0.07l-0.24 0c0,0.03 0.01,0.05 0.03,0.06 0.02,0.01 0.04,0.02 0.07,0.02 0.03,0 0.07,-0.01 0.12,-0.02l0 0.08c-0.04,0.02 -0.09,0.03 -0.13,0.03 -0.04,0 -0.07,-0.01 -0.1,-0.02 -0.03,-0.01 -0.06,-0.04 -0.08,-0.07 -0.02,-0.03 -0.03,-0.07 -0.03,-0.11zm0.26 -0.05c0,0 0,-0.01 0,-0.01 0,-0.02 -0.01,-0.04 -0.02,-0.05 -0.01,-0.01 -0.02,-0.01 -0.04,-0.01 -0.05,0 -0.07,0.02 -0.08,0.07l0.14 0zm0.44 0.02c0,-0.03 0,-0.05 -0.01,-0.07 -0.01,-0.01 -0.03,-0.02 -0.05,-0.02 -0.01,0 -0.02,0.01 -0.04,0.01 -0.01,0.01 -0.03,0.01 -0.04,0.02l0 0.28 -0.11 0 0 -0.39 0.1 0 0.01 0.03c0.02,-0.01 0.05,-0.02 0.07,-0.03 0.02,-0.01 0.04,-0.01 0.06,-0.01 0.04,0 0.07,0.01 0.09,0.04 0.02,0.02 0.03,0.06 0.03,0.1l0 0.26 -0.11 0 0 -0.22zm-1.75 0.91c0.06,0.02 0.12,0.03 0.16,0.03 0.03,0 0.05,0 0.07,-0.02 0.02,-0.01 0.02,-0.02 0.02,-0.04 0,-0.01 0,-0.03 -0.02,-0.04 -0.01,-0.01 -0.03,-0.02 -0.07,-0.04 -0.03,-0.02 -0.06,-0.03 -0.08,-0.05 -0.02,-0.01 -0.04,-0.03 -0.05,-0.05 -0.02,-0.03 -0.02,-0.05 -0.02,-0.09 0,-0.05 0.02,-0.09 0.05,-0.11 0.04,-0.02 0.09,-0.04 0.14,-0.04 0.05,0 0.1,0.01 0.15,0.03l0 0.1c-0.03,-0.01 -0.06,-0.02 -0.08,-0.02 -0.03,-0.01 -0.05,-0.01 -0.07,-0.01 -0.02,0 -0.04,0 -0.05,0.01 -0.01,0.01 -0.02,0.02 -0.02,0.04 0,0.02 0.01,0.03 0.03,0.04 0.01,0.02 0.03,0.03 0.07,0.05 0.03,0.01 0.05,0.03 0.07,0.04 0.02,0.02 0.04,0.04 0.06,0.06 0.01,0.02 0.02,0.05 0.02,0.08 0,0.03 -0.01,0.06 -0.03,0.08 -0.02,0.02 -0.04,0.04 -0.07,0.05 -0.03,0.02 -0.07,0.02 -0.11,0.02 -0.03,0 -0.06,0 -0.09,0 -0.02,-0.01 -0.05,-0.02 -0.08,-0.03l0 -0.09zm0.7 -0.19l-0.11 0 0 0.17c0,0.04 0.02,0.05 0.06,0.05 0.02,0 0.04,0 0.07,-0.01l0 0.09c-0.04,0.01 -0.08,0.01 -0.12,0.01 -0.03,0 -0.06,-0.01 -0.09,-0.03 -0.02,-0.01 -0.03,-0.05 -0.03,-0.09l0 -0.19 -0.06 0 0 -0.09 0.06 0 0 -0.1 0.11 0 0 0.1 0.11 0 0 0.09zm0.08 0.3l0 -0.39 0.11 0 0.01 0.05c0.01,-0.01 0.02,-0.03 0.04,-0.04 0.02,-0.01 0.04,-0.02 0.06,-0.02 0.02,0 0.03,0.01 0.05,0.01l0 0.1c-0.02,-0.01 -0.04,-0.01 -0.06,-0.01 -0.02,0 -0.03,0 -0.05,0.01 -0.02,0.01 -0.03,0.03 -0.05,0.06l0 0.23 -0.11 0zm0.3 -0.19c0,-0.04 0.01,-0.08 0.03,-0.11 0.02,-0.03 0.04,-0.06 0.07,-0.07 0.03,-0.02 0.06,-0.03 0.1,-0.03 0.05,0 0.09,0.02 0.12,0.05 0.03,0.03 0.04,0.07 0.04,0.12 0,0.02 0,0.05 -0.01,0.07l-0.24 0c0.01,0.03 0.02,0.05 0.04,0.06 0.02,0.02 0.04,0.02 0.07,0.02 0.03,0 0.07,0 0.12,-0.02l0 0.08c-0.05,0.02 -0.09,0.03 -0.14,0.03 -0.03,0 -0.07,0 -0.1,-0.02 -0.03,-0.01 -0.05,-0.04 -0.07,-0.07 -0.02,-0.03 -0.03,-0.07 -0.03,-0.11zm0.25 -0.05c0.01,0 0.01,0 0.01,-0.01 0,-0.02 -0.01,-0.03 -0.02,-0.05 -0.01,-0.01 -0.02,-0.01 -0.04,-0.01 -0.05,0 -0.08,0.02 -0.09,0.07l0.14 0zm0.17 0.05c0,-0.04 0.01,-0.08 0.03,-0.11 0.02,-0.03 0.04,-0.06 0.07,-0.07 0.03,-0.02 0.06,-0.03 0.09,-0.03 0.06,0 0.1,0.02 0.13,0.05 0.03,0.03 0.04,0.07 0.04,0.12 0,0.02 0,0.05 -0.01,0.07l-0.24 0c0.01,0.03 0.02,0.05 0.04,0.06 0.01,0.02 0.04,0.02 0.06,0.02 0.04,0 0.08,0 0.13,-0.02l0 0.08c-0.05,0.02 -0.09,0.03 -0.14,0.03 -0.04,0 -0.07,0 -0.1,-0.02 -0.03,-0.01 -0.05,-0.04 -0.07,-0.07 -0.02,-0.03 -0.03,-0.07 -0.03,-0.11zm0.25 -0.05c0,0 0,0 0,-0.01 0,-0.02 0,-0.03 -0.01,-0.05 -0.01,-0.01 -0.03,-0.01 -0.05,-0.01 -0.04,0 -0.07,0.02 -0.08,0.07l0.14 0zm0.43 -0.06l-0.11 0 0 0.17c0,0.04 0.02,0.05 0.06,0.05 0.02,0 0.04,0 0.07,-0.01l0 0.09c-0.04,0.01 -0.08,0.01 -0.12,0.01 -0.03,0 -0.06,-0.01 -0.09,-0.03 -0.02,-0.01 -0.03,-0.05 -0.03,-0.09l0 -0.19 -0.06 0 0 -0.09 0.06 0 0 -0.1 0.11 0 0 0.1 0.11 0 0 0.09zm-2.07 1.11l-0.11 0 0.06 -0.55 0.13 0 0.13 0.4 0.12 -0.4 0.13 0 0.06 0.55 -0.11 0 -0.03 -0.37 -0.12 0.37 -0.11 0 -0.12 -0.36 -0.03 0.36zm0.91 -0.11c0,0.01 0,0.02 0,0.03 0,0 0.01,0 0.02,0 0.01,0 0.01,0 0.02,0l0 0.07c-0.02,0.01 -0.04,0.01 -0.07,0.01 -0.02,0 -0.03,0 -0.05,-0.01 -0.01,-0.01 -0.02,-0.02 -0.03,-0.04 -0.03,0.03 -0.07,0.05 -0.12,0.05 -0.03,0 -0.06,-0.01 -0.08,-0.02 -0.02,-0.02 -0.03,-0.05 -0.03,-0.08 0,-0.08 0.08,-0.14 0.23,-0.15 0,-0.03 -0.01,-0.04 -0.02,-0.05 -0.01,-0.01 -0.03,-0.02 -0.05,-0.02 -0.02,0 -0.05,0 -0.07,0.01 -0.02,0.01 -0.04,0.02 -0.06,0.03l0 -0.09c0.06,-0.02 0.11,-0.04 0.15,-0.04 0.04,0 0.08,0.02 0.11,0.04 0.03,0.02 0.05,0.05 0.05,0.1l0 0.16zm-0.22 0c0,0.02 0.01,0.03 0.03,0.03 0.01,0 0.03,-0.01 0.04,-0.01 0.01,-0.01 0.03,-0.02 0.04,-0.03l0 -0.07c-0.03,0.01 -0.06,0.02 -0.08,0.03 -0.02,0.01 -0.03,0.03 -0.03,0.05zm0.44 -0.26c0.02,-0.01 0.04,-0.02 0.06,-0.03 0.02,0 0.04,-0.01 0.07,-0.01 0.02,0 0.05,0.01 0.07,0.03 0.02,0.01 0.04,0.03 0.05,0.06 0.02,0.03 0.03,0.06 0.03,0.1 0,0.05 -0.01,0.09 -0.03,0.12 -0.02,0.03 -0.05,0.06 -0.08,0.08 -0.03,0.02 -0.07,0.03 -0.12,0.03 -0.02,0 -0.04,0 -0.05,-0.01l0 0.16 -0.11 0 0 -0.55 0.1 0 0.01 0.02zm0 0.28c0.02,0.01 0.04,0.01 0.06,0.01 0.03,0 0.06,-0.01 0.08,-0.03 0.02,-0.02 0.02,-0.05 0.02,-0.09 0,-0.04 0,-0.07 -0.02,-0.09 -0.01,-0.01 -0.03,-0.02 -0.06,-0.02 -0.01,0 -0.02,0 -0.04,0.01 -0.01,0 -0.03,0.01 -0.04,0.02l0 0.19z"/>
 </g>
</svg>
