<?xml version="1.0" encoding="UTF-8"?>
<!DOCTYPE svg PUBLIC "-//W3C//DTD SVG 1.0//EN" "http://www.w3.org/TR/2001/REC-SVG-20010904/DTD/svg10.dtd">
<!-- Creator: CorelDRAW 2019 (64-Bit Evaluation Version) -->
<svg xmlns="http://www.w3.org/2000/svg" xml:space="preserve" width="107px" height="32px" version="1.0" style="shape-rendering:geometricPrecision; text-rendering:geometricPrecision; image-rendering:optimizeQuality; fill-rule:evenodd; clip-rule:evenodd"
viewBox="0 0 4.23 1.27"
 xmlns:xlink="http://www.w3.org/1999/xlink">
 <defs>
  <style type="text/css">
   <![CDATA[
    .fil0 {fill:#7FBA31}
   ]]>
  </style>
 </defs>
 <g id="Layer_x0020_1">
  <metadata id="CorelCorpID_0Corel-Layer"/>
  <g id="_2642087329616">
   <path class="fil0" d="M1.44 0.61c0,0.09 0.02,0.2 0.05,0.26 0.19,0.38 0.62,0.44 0.97,0.26 0.02,-0.01 0.04,-0.01 0.06,-0.02 0.01,-0.02 0.03,-0.03 0.05,-0.03l0 -0.43c0,-0.06 0,-0.04 -0.24,-0.04l0 0.3c0,0.02 -0.02,0.02 -0.03,0.03 -0.02,0.01 -0.03,0.01 -0.05,0.02 -0.1,0.04 -0.23,0.04 -0.32,-0.01 -0.11,-0.05 -0.21,-0.16 -0.21,-0.3 0,-0.12 0.02,-0.22 0.12,-0.31 0.14,-0.12 0.36,-0.11 0.52,-0.01 0.02,0.02 0.04,0.04 0.07,0.05 0.02,-0.04 0.12,-0.15 0.14,-0.19 -0.01,-0.02 -0.06,-0.06 -0.09,-0.07 -0.04,-0.02 -0.06,-0.04 -0.11,-0.06 -0.21,-0.08 -0.45,-0.06 -0.65,0.05l-0.09 0.07c-0.11,0.11 -0.19,0.27 -0.19,0.43z"/>
   <path class="fil0" d="M3.3 0.35c0,0.18 0.1,0.27 0.26,0.33l0.22 0.06c0.11,0.04 0.16,0.06 0.16,0.15 0,0.07 -0.1,0.1 -0.17,0.1 -0.14,0 -0.28,-0.07 -0.38,-0.14 -0.03,-0.02 -0.03,-0.03 -0.05,-0.04l-0.11 0.22c0.02,0.02 0.03,0.03 0.05,0.04 0.18,0.13 0.47,0.2 0.68,0.13 0.14,-0.05 0.27,-0.15 0.27,-0.32 0,-0.19 -0.09,-0.27 -0.26,-0.34 -0.14,-0.05 -0.37,-0.08 -0.37,-0.21 0,-0.06 0.07,-0.09 0.14,-0.09 0.09,0 0.22,0.04 0.3,0.08 0.02,0.01 0.06,0.04 0.08,0.04 0.01,-0.02 0.02,-0.03 0.02,-0.05l0.06 -0.11c0.01,-0.02 0.01,-0.04 0.02,-0.06 -0.34,-0.23 -0.92,-0.16 -0.92,0.21z"/>
   <path class="fil0" d="M0 0.61c0,0.24 0.15,0.47 0.37,0.56 0.16,0.06 0.39,0.08 0.54,0 -0.01,-0.02 -0.11,-0.12 -0.15,-0.15 -0.03,-0.04 -0.03,-0.02 -0.13,-0.02 -0.07,0 -0.16,-0.03 -0.2,-0.07 -0.02,-0.01 -0.04,-0.02 -0.05,-0.04 -0.13,-0.13 -0.15,-0.36 -0.04,-0.51 0.14,-0.19 0.41,-0.22 0.58,-0.05 0.1,0.1 0.11,0.18 0.11,0.31 0,0.03 0,0.06 -0.01,0.08l0.2 0.19c0.1,-0.15 0.1,-0.4 0.02,-0.57 -0.04,-0.08 -0.08,-0.12 -0.14,-0.18 -0.16,-0.16 -0.48,-0.2 -0.71,-0.11 -0.23,0.09 -0.39,0.3 -0.39,0.56z"/>
   <path class="fil0" d="M2.8 1.22l0.27 0 0 -1.19c0,-0.01 0,-0.01 -0.02,-0.01l-0.25 0 0 1.2z"/>
   <path class="fil0" d="M0.79 0.94c0,0.02 0.2,0.22 0.23,0.25 0.1,0.1 0.04,0.08 0.28,0.08 0,-0.23 0.03,-0.15 -0.16,-0.35 -0.2,-0.19 -0.12,-0.16 -0.35,-0.16l0 0.18z"/>
   <path class="fil0" d="M0.55 0.71c0,0.01 0.15,0.16 0.16,0.17l0 -0.19c0.25,0 0.2,0.02 0.11,-0.07 -0.1,-0.11 -0.04,-0.09 -0.27,-0.09l0 0.18z"/>
  </g>
 </g>
</svg>
