<?xml version="1.0" encoding="UTF-8"?>
<!DOCTYPE svg PUBLIC "-//W3C//DTD SVG 1.0//EN" "http://www.w3.org/TR/2001/REC-SVG-20010904/DTD/svg10.dtd">
<!-- Creator: CorelDRAW 2019 (64-Bit Evaluation Version) -->
<svg xmlns="http://www.w3.org/2000/svg" xml:space="preserve" width="86px" height="32px" version="1.0" style="shape-rendering:geometricPrecision; text-rendering:geometricPrecision; image-rendering:optimizeQuality; fill-rule:evenodd; clip-rule:evenodd"
viewBox="0 0 3.55 1.32"
 xmlns:xlink="http://www.w3.org/1999/xlink">
 <defs>
  <style type="text/css">
   <![CDATA[
    .fil0 {fill:#3688C8;fill-rule:nonzero}
   ]]>
  </style>
 </defs>
 <g id="Layer_x0020_1">
  <metadata id="CorelCorpID_0Corel-Layer"/>
  <g id="_2643682861872">
   <path class="fil0" d="M3.2 1.25c0,0 0,0 0,0 0,0 0,0.01 0.01,0.01 0,0 0,-0.01 0,-0.01l0 0.02c-0.01,0 -0.01,0.01 -0.02,0.01 0,0 -0.01,-0.01 -0.01,-0.01 0,0 -0.01,-0.01 -0.01,-0.01 0,-0.01 0,-0.01 0,-0.01l0.03 -0.13 0.02 0 -0.02 0.13zm0.06 -0.01l0.03 -0.07 0.03 0 -0.06 0.15 -0.03 0 0.01 -0.04 -0.01 -0.11 0.03 0 0 0.07zm0.1 -0.07c0.01,0 0.02,0 0.03,0l-0.01 0.03c0,0 0,-0.01 -0.01,-0.01 0,0 -0.01,0 -0.01,0 0,0 -0.01,0 -0.01,0 0,0.01 0,0.01 0,0.01 0,0 0,0 0,0.01 0,0 0.01,0 0.01,0 0.01,0.01 0.01,0.01 0.01,0.02 0.01,0 0.01,0.01 0.01,0.01 0,0.01 0,0.02 -0.01,0.03 -0.01,0 -0.02,0.01 -0.03,0.01 0,0 -0.01,0 -0.02,-0.01 0,0 0,0 -0.01,0l0.01 -0.02c0,0 0,0 0.01,0 0,0 0.01,0.01 0.01,0.01 0.01,0 0.01,-0.01 0.01,-0.01 0,0 0,0 0,0 0,-0.01 0,-0.01 0,-0.01 0,0 0,0 -0.01,-0.01 0,0 -0.01,-0.01 -0.01,-0.01 -0.01,0 -0.01,-0.01 -0.01,-0.02 0,0 0,-0.01 0.01,-0.01 0,-0.01 0.01,-0.01 0.01,-0.02 0.01,0 0.02,0 0.02,0zm0.03 0.06c0,-0.01 0,-0.02 0.01,-0.03 0,-0.01 0.01,-0.02 0.02,-0.02 0,-0.01 0.01,-0.01 0.02,-0.01 0.01,0 0.02,0 0.02,0.01 0.01,0 0.01,0.01 0.01,0.02 0,0.01 0,0.02 -0.01,0.03 -0.01,0 -0.02,0.01 -0.04,0.01 0,0.01 0,0.01 0,0.01 0.01,0 0.01,0 0.01,0 0.01,0 0.02,0 0.03,0l0 0.02c-0.01,0 -0.02,0.01 -0.03,0.01 -0.01,0 -0.02,-0.01 -0.03,-0.01 -0.01,-0.01 -0.01,-0.02 -0.01,-0.04zm0.03 -0.01c0.01,0 0.01,0 0.02,-0.01 0,0 0,-0.01 0,-0.01 0,0 0,0 0,-0.01 0,0 0,0 0,0 -0.01,0 -0.01,0.01 -0.01,0.01 -0.01,0.01 -0.01,0.01 -0.01,0.02zm0.1 -0.05c0.01,0 0.02,0 0.03,0l-0.01 0.03c0,0 0,-0.01 -0.01,-0.01 0,0 -0.01,0 -0.01,0 -0.01,0 -0.01,0 -0.01,0 0,0.01 0,0.01 0,0.01 0,0 0,0 0,0.01 0,0 0,0 0.01,0 0,0.01 0.01,0.01 0.01,0.02 0.01,0 0.01,0.01 0.01,0.01 0,0.01 -0.01,0.02 -0.01,0.03 -0.01,0 -0.02,0.01 -0.03,0.01 -0.01,0 -0.01,0 -0.02,-0.01 0,0 -0.01,0 -0.01,0l0 -0.02c0.01,0 0.01,0 0.02,0 0,0 0.01,0.01 0.01,0.01 0,0 0.01,-0.01 0.01,-0.01 0,0 0,0 0,0 0,-0.01 0,-0.01 0,-0.01 0,0 -0.01,0 -0.01,-0.01 -0.01,0 -0.01,-0.01 -0.01,-0.01 -0.01,0 -0.01,-0.01 -0.01,-0.02 0,0 0,-0.01 0.01,-0.01 0,-0.01 0,-0.01 0.01,-0.02 0.01,0 0.01,0 0.02,0zm-3.52 0.07c0.01,0.01 0.02,0.01 0.02,0.01 0.01,0 0.01,0 0.02,0 0,0 0.01,0 0.01,0 0.01,-0.01 0.01,-0.01 0.01,-0.01 0,-0.01 0,-0.01 -0.01,-0.01 0,-0.01 0,-0.01 -0.01,-0.01 0,-0.01 -0.01,-0.01 -0.01,-0.02 0,0 -0.01,0 -0.01,-0.01 0,0 0,-0.01 0,-0.01 0,-0.02 0,-0.03 0.01,-0.04 0.01,-0.01 0.02,-0.01 0.04,-0.01 0,0 0.01,0 0.01,0 0.01,0 0.01,0 0.02,0.01l0 0.02c-0.01,0 -0.02,0 -0.02,0 -0.01,0 -0.01,-0.01 -0.01,-0.01 -0.01,0 -0.01,0.01 -0.02,0.01 0,0 0,0.01 0,0.01 0,0 0,0.01 0,0.01 0.01,0 0.01,0.01 0.02,0.01 0,0 0.01,0.01 0.01,0.01 0,0 0,0.01 0.01,0.01 0,0.01 0,0.01 0,0.02 0,0.01 0,0.02 -0.01,0.02 0,0.01 -0.01,0.02 -0.01,0.02 -0.01,0 -0.02,0.01 -0.03,0.01 -0.01,0 -0.02,0 -0.02,-0.01 -0.01,0 -0.01,0 -0.02,0l0 -0.03zm0.13 0l0.03 -0.07 0.03 0 -0.07 0.15 -0.03 0 0.02 -0.04 -0.01 -0.11 0.03 0 0 0.07zm0.1 -0.07c0.01,0 0.02,0 0.03,0l-0.01 0.03c0,0 0,-0.01 -0.01,-0.01 0,0 -0.01,0 -0.01,0 0,0 -0.01,0 -0.01,0 0,0.01 0,0.01 0,0.01 0,0 0,0 0,0.01 0,0 0.01,0 0.01,0 0.01,0.01 0.01,0.01 0.01,0.02 0.01,0 0.01,0.01 0.01,0.01 0,0.01 0,0.02 -0.01,0.03 -0.01,0 -0.02,0.01 -0.03,0.01 -0.01,0 -0.01,0 -0.02,-0.01 0,0 -0.01,0 -0.01,0l0 -0.02c0.01,0 0.01,0 0.02,0 0,0 0.01,0.01 0.01,0.01 0,0 0.01,-0.01 0.01,-0.01 0,0 0,0 0,0 0,-0.01 0,-0.01 0,-0.01 0,0 0,0 -0.01,-0.01 0,0 -0.01,-0.01 -0.01,-0.01 -0.01,0 -0.01,-0.01 -0.01,-0.02 0,0 0,-0.01 0.01,-0.01 0,-0.01 0.01,-0.01 0.01,-0.02 0.01,0 0.02,0 0.02,0zm0.1 0.03l-0.03 0 0 0.04c0,0 -0.01,0 -0.01,0 0,0.01 0.01,0.01 0.02,0.01 0,0 0.01,0 0.01,0l0 0.02c-0.01,0 -0.02,0.01 -0.03,0.01 -0.01,0 -0.01,-0.01 -0.02,-0.01 0,0 0,-0.01 0,-0.02 0,0 0,0 0,-0.01l0.01 -0.04 -0.02 0 0.01 -0.03 0.01 0 0 -0.02 0.03 0 0 0.02 0.02 0 0 0.03zm0 0.03c0,-0.01 0,-0.02 0.01,-0.03 0,-0.01 0.01,-0.02 0.02,-0.02 0.01,-0.01 0.01,-0.01 0.02,-0.01 0.01,0 0.02,0 0.03,0.01 0,0 0,0.01 0,0.02 0,0.01 0,0.02 -0.01,0.03 -0.01,0 -0.02,0.01 -0.04,0.01 0,0.01 0,0.01 0,0.01 0.01,0 0.01,0 0.01,0 0.01,0 0.02,0 0.03,0l0 0.02c-0.01,0 -0.02,0.01 -0.03,0.01 -0.01,0 -0.02,-0.01 -0.03,-0.01 0,-0.01 -0.01,-0.02 -0.01,-0.04zm0.03 -0.01c0.01,0 0.01,0 0.02,-0.01 0,0 0,-0.01 0,-0.01 0,0 0,0 0,-0.01 0,0 0,0 0,0 -0.01,0 -0.01,0.01 -0.01,0.01 -0.01,0.01 -0.01,0.01 -0.01,0.02zm0.1 0.05l0.02 -0.06c0,0 0,-0.01 0,-0.01 0,0 0,-0.01 -0.01,-0.01 0,0 0,0.01 -0.01,0.01 0,0 0,0 0,0.01l-0.02 0.06 -0.02 0 0.01 -0.1 0.03 0 0 0.01c0,0 0.01,0 0.01,-0.01 0.01,0 0.01,0 0.02,0 0,0 0,0 0.01,0 0,0.01 0,0.01 0,0.02 0.02,-0.01 0.03,-0.02 0.04,-0.02 0,0 0.01,0 0.01,0.01 0,0 0,0.01 0,0.01 0,0.01 0,0.01 0,0.02l-0.01 0.06 -0.03 0 0.02 -0.06c0,0 0,-0.01 0,-0.01 0,0 -0.01,-0.01 -0.01,-0.01 0,0 0,0.01 -0.01,0.01 0,0 0,0 -0.01,0.01l-0.01 0.06 -0.03 0zm0.15 -0.07l0 -0.03 0.02 0 0 -0.01c0,-0.01 0.01,-0.02 0.01,-0.03 0.01,0 0.02,-0.01 0.03,-0.01 0.01,0 0.01,0 0.02,0l-0.01 0.03c0,0 0,0 -0.01,0 0,0 -0.01,0 -0.01,0.01l0 0.01 0.02 0 -0.01 0.03 -0.02 0 -0.01 0.08c-0.01,0.01 -0.01,0.02 -0.02,0.03 -0.01,0.01 -0.02,0.01 -0.03,0.01 0,0 -0.01,0 -0.01,0l0 -0.03c0.01,0 0.01,0 0.01,0 0.01,0 0.01,0 0.01,0 0.01,0 0.01,-0.01 0.01,-0.02l0.01 -0.07 -0.01 0zm0.1 0.05c0,0 0.01,0 0.01,0 0,-0.01 0.01,-0.01 0.01,-0.02 0,-0.01 0,-0.01 0,-0.02 0,-0.01 0,-0.02 -0.01,-0.02 0,0 -0.01,0 -0.01,0.01 0,0 -0.01,0.01 -0.01,0.02 0,0 0,0.01 0,0.02 0,0.01 0,0.01 0.01,0.01zm-0.04 -0.01c0,-0.01 0,-0.03 0.01,-0.04 0,-0.01 0.01,-0.01 0.02,-0.02 0.01,-0.01 0.02,-0.01 0.03,-0.01 0.01,0 0.02,0 0.02,0.01 0.01,0.01 0.01,0.02 0.01,0.03 0,0.01 0,0.02 -0.01,0.03 0,0.01 -0.01,0.02 -0.02,0.03 -0.01,0 -0.02,0.01 -0.03,0.01 -0.01,0 -0.02,-0.01 -0.02,-0.01 -0.01,-0.01 -0.01,-0.02 -0.01,-0.03zm0.09 0.03l0.02 -0.1 0.03 0 0 0.02c0,-0.01 0,-0.01 0.01,-0.01 0,-0.01 0.01,-0.01 0.01,-0.01 0.01,0 0.01,0 0.01,0l0 0.03c-0.01,0 -0.01,0 -0.01,0 -0.01,0 -0.01,0 -0.02,0 0,0 0,0.01 -0.01,0.01l-0.01 0.06 -0.03 0zm0.18 -0.1l-0.02 0.05 0.03 0 -0.01 -0.05zm0 -0.04l0.03 0 0.02 0.14 -0.04 0 0 -0.03 -0.04 0 -0.01 0.03 -0.03 0 0.07 -0.14zm0.09 0.11c0,0 0,0 0,0 0,0.01 0,0.01 0,0.01 0.01,0 0.01,0 0.01,0 0.01,0 0.01,-0.01 0.02,-0.01l0.01 -0.07 0.02 0 -0.01 0.1 -0.03 0 0 -0.01c-0.01,0.01 -0.02,0.02 -0.03,0.02 -0.01,0 -0.01,-0.01 -0.01,-0.01 -0.01,0 -0.01,-0.01 -0.01,-0.02 0,0 0,0 0,-0.01l0.01 -0.07 0.03 0 -0.01 0.07zm0.14 -0.04l-0.03 0 0 0.04c0,0 0,0 0,0 0,0.01 0,0.01 0.01,0.01 0,0 0.01,0 0.01,0l0 0.02c-0.01,0 -0.02,0.01 -0.03,0.01 0,0 -0.01,-0.01 -0.02,-0.01 0,0 0,-0.01 0,-0.02 0,0 0,0 0,-0.01l0.01 -0.04 -0.02 0 0.01 -0.03 0.01 0 0 -0.02 0.03 0 0 0.02 0.02 0 0 0.03zm0.04 0.05c0,0 0.01,0 0.01,0 0,-0.01 0.01,-0.01 0.01,-0.02 0,-0.01 0,-0.01 0,-0.02 0,-0.01 0,-0.02 -0.01,-0.02 0,0 -0.01,0 -0.01,0.01 0,0 -0.01,0.01 -0.01,0.02 0,0 0,0.01 0,0.02 0,0.01 0,0.01 0.01,0.01zm-0.04 -0.01c0,-0.01 0,-0.03 0.01,-0.04 0,-0.01 0.01,-0.01 0.02,-0.02 0.01,-0.01 0.02,-0.01 0.03,-0.01 0.01,0 0.02,0 0.02,0.01 0.01,0.01 0.01,0.02 0.01,0.03 0,0.01 0,0.02 -0.01,0.03 0,0.01 -0.01,0.02 -0.02,0.03 -0.01,0 -0.02,0.01 -0.03,0.01 -0.01,0 -0.02,-0.01 -0.02,-0.01 -0.01,-0.01 -0.01,-0.02 -0.01,-0.03zm0.14 0.03l0.02 -0.06c0,0 0,-0.01 0,-0.01 0,0 -0.01,-0.01 -0.01,-0.01 0,0 0,0.01 -0.01,0.01 0,0 0,0 -0.01,0.01l-0.01 0.06 -0.03 0 0.02 -0.1 0.03 0 0 0.01c0,0 0.01,0 0.01,-0.01 0.01,0 0.01,0 0.02,0 0,0 0,0 0.01,0 0,0.01 0,0.01 0,0.02 0.01,-0.01 0.02,-0.02 0.03,-0.02 0.01,0 0.02,0 0.02,0.01 0,0 0,0.01 0,0.01 0,0.01 0,0.01 0,0.02l-0.01 0.06 -0.03 0 0.01 -0.06c0,0 0.01,-0.01 0.01,-0.01 0,0 -0.01,-0.01 -0.01,-0.01 0,0 0,0.01 -0.01,0.01 0,0 0,0 -0.01,0.01l-0.01 0.06 -0.03 0zm0.13 -0.03c0,0.01 0,0.01 0.01,0.01 0,0 0,0 0.01,0 0,0 0,-0.01 0.01,-0.01l0 -0.04c0,-0.01 0,-0.01 -0.01,-0.01 0,0 0,0 -0.01,0.01 0,0 0,0.01 -0.01,0.01 0,0.01 0,0.02 0,0.03zm-0.03 0c0,-0.01 0.01,-0.03 0.01,-0.04 0.01,-0.01 0.01,-0.02 0.02,-0.02 0.01,-0.01 0.02,-0.01 0.03,-0.01 0.01,0 0.01,0 0.02,0 0.01,0 0.01,0.01 0.02,0.01l-0.02 0.07c0,0 0,0 0,0 0,0 0,0.01 0.01,0.01 0,0 0,-0.01 0,-0.01l0 0.02c0,0 -0.01,0 -0.01,0 0,0.01 -0.01,0.01 -0.01,0.01 0,0 -0.01,-0.01 -0.01,-0.01 0,0 -0.01,0 -0.01,-0.01 0,0.01 0,0.01 -0.01,0.01 0,0 -0.01,0.01 -0.01,0.01 -0.01,0 -0.02,-0.01 -0.02,-0.01 0,-0.01 -0.01,-0.02 -0.01,-0.03zm0.17 -0.04l-0.02 0 -0.01 0.04c0,0 0,0 0,0 0,0.01 0.01,0.01 0.01,0.01 0.01,0 0.01,0 0.02,0l-0.01 0.02c-0.01,0 -0.01,0.01 -0.02,0.01 -0.01,0 -0.02,-0.01 -0.02,-0.01 -0.01,0 -0.01,-0.01 -0.01,-0.02 0,0 0,0 0,-0.01l0.01 -0.04 -0.01 0 0 -0.03 0.02 0 0 -0.02 0.03 0 -0.01 0.02 0.03 0 -0.01 0.03zm0.01 0.03c0,-0.01 0,-0.02 0,-0.03 0.01,-0.01 0.02,-0.02 0.02,-0.02 0.01,-0.01 0.02,-0.01 0.03,-0.01 0.01,0 0.02,0 0.02,0.01 0.01,0 0.01,0.01 0.01,0.02 0,0.01 -0.01,0.02 -0.02,0.03 0,0 -0.02,0.01 -0.03,0.01 0,0.01 0,0.01 0,0.01 0,0 0.01,0 0.01,0 0.01,0 0.02,0 0.03,0l-0.01 0.02c-0.01,0 -0.02,0.01 -0.02,0.01 -0.02,0 -0.03,-0.01 -0.03,-0.01 -0.01,-0.01 -0.01,-0.02 -0.01,-0.04zm0.03 -0.01c0,0 0.01,0 0.01,-0.01 0.01,0 0.01,-0.01 0.01,-0.01 0,0 0,0 0,-0.01 0,0 0,0 -0.01,0 0,0 0,0.01 -0.01,0.01 0,0.01 0,0.01 0,0.02zm0.08 0.02c0,0.01 0.01,0.01 0.01,0.01 0,0 0.01,0 0.01,0 0,0 0.01,-0.01 0.01,-0.01l0.01 -0.04c-0.01,-0.01 -0.01,-0.01 -0.01,-0.01 -0.01,0 -0.01,0 -0.01,0.01 -0.01,0 -0.01,0.01 -0.01,0.01 -0.01,0.01 -0.01,0.02 -0.01,0.03zm-0.03 0c0,-0.01 0.01,-0.03 0.01,-0.04 0.01,-0.01 0.02,-0.02 0.03,-0.02 0.01,-0.01 0.02,-0.01 0.03,-0.01l0 0 0.01 -0.05 0.03 0 -0.03 0.15 -0.02 0 0 -0.01c-0.01,0.01 -0.02,0.02 -0.03,0.02 -0.01,0 -0.01,-0.01 -0.02,-0.01 0,-0.01 -0.01,-0.02 -0.01,-0.03zm0.25 -0.08c-0.01,0 -0.02,0 -0.03,0 0,0 -0.01,0 -0.02,0 0,0.01 -0.01,0.02 -0.01,0.02 -0.01,0.01 -0.01,0.02 -0.01,0.04 0,0.01 0,0.01 0.01,0.02 0,0.01 0.01,0.01 0.02,0.01 0,0 0,0 0,0l0.01 -0.03 -0.02 0 0 -0.02 0.05 0 -0.01 0.07c-0.01,0 -0.03,0.01 -0.04,0.01 -0.01,0 -0.02,-0.01 -0.03,-0.01 0,0 -0.01,-0.01 -0.01,-0.02 -0.01,-0.01 -0.01,-0.02 -0.01,-0.03 0,-0.02 0,-0.03 0.01,-0.05 0.01,-0.01 0.02,-0.02 0.03,-0.03 0.01,-0.01 0.02,-0.01 0.04,-0.01 0,0 0.01,0 0.01,0 0.01,0 0.01,0 0.02,0l-0.01 0.03zm0.01 0.07c0,-0.01 0,-0.02 0.01,-0.03 0,-0.01 0.01,-0.02 0.02,-0.02 0,-0.01 0.01,-0.01 0.02,-0.01 0.01,0 0.02,0 0.02,0.01 0.01,0 0.01,0.01 0.01,0.02 0,0.01 -0.01,0.02 -0.01,0.03 -0.01,0 -0.03,0.01 -0.04,0.01 0,0.01 0,0.01 0,0.01 0,0 0.01,0 0.01,0 0.01,0 0.02,0 0.03,0l0 0.02c-0.01,0 -0.02,0.01 -0.03,0.01 -0.01,0 -0.02,-0.01 -0.03,-0.01 -0.01,-0.01 -0.01,-0.02 -0.01,-0.04zm0.03 -0.01c0.01,0 0.01,0 0.02,-0.01 0,0 0,-0.01 0,-0.01 0,0 0,0 0,-0.01 0,0 0,0 0,0 -0.01,0 -0.01,0.01 -0.02,0.01 0,0.01 0,0.01 0,0.02zm0.09 0.03c0.01,0 0.01,0 0.01,0 0.01,-0.01 0.01,-0.01 0.01,-0.02 0,-0.01 0,-0.01 0,-0.02 0,-0.01 0,-0.02 0,-0.02 -0.01,0 -0.01,0 -0.02,0.01 0,0 0,0.01 0,0.02 -0.01,0 -0.01,0.01 -0.01,0.02 0,0.01 0.01,0.01 0.01,0.01zm-0.03 -0.01c0,-0.01 0,-0.03 0,-0.04 0.01,-0.01 0.01,-0.01 0.02,-0.02 0.01,-0.01 0.02,-0.01 0.03,-0.01 0.01,0 0.02,0 0.02,0.01 0.01,0.01 0.01,0.02 0.01,0.03 0,0.01 0,0.02 -0.01,0.03 0,0.01 -0.01,0.02 -0.02,0.03 0,0 -0.01,0.01 -0.02,0.01 -0.01,0 -0.02,-0.01 -0.03,-0.01 0,-0.01 0,-0.02 0,-0.03zm0.13 -0.07c0.01,0 0.02,0 0.03,0l0 0.03c-0.01,0 -0.01,-0.01 -0.02,-0.01 0,0 -0.01,0 -0.01,0 0,0 -0.01,0 -0.01,0 0,0.01 0,0.01 0,0.01 0,0 0,0 0,0.01 0,0 0.01,0 0.01,0 0.01,0.01 0.01,0.01 0.02,0.02 0,0 0,0.01 0,0.01 0,0.01 0,0.02 -0.01,0.03 -0.01,0 -0.02,0.01 -0.03,0.01 0,0 -0.01,0 -0.01,-0.01 -0.01,0 -0.01,0 -0.02,0l0.01 -0.02c0,0 0,0 0.01,0 0,0 0.01,0.01 0.01,0.01 0.01,0 0.01,-0.01 0.01,-0.01 0,0 0,0 0,0 0,-0.01 0,-0.01 0,-0.01 0,0 0,0 -0.01,-0.01 0,0 -0.01,-0.01 -0.01,-0.01 0,0 -0.01,-0.01 -0.01,-0.02 0,0 0.01,-0.01 0.01,-0.01 0,-0.01 0.01,-0.01 0.01,-0.02 0.01,0 0.02,0 0.02,0zm0.1 0.03c0,0 0,0 -0.01,0 0,-0.01 0,-0.01 -0.01,-0.01 0,0 -0.01,0.01 -0.01,0.01 -0.01,0.01 -0.01,0.02 -0.01,0.03 0,0.01 0,0.02 0,0.02 0.01,0 0.01,0 0.01,0 0.01,0 0.02,0 0.02,0l0 0.02c-0.01,0 -0.02,0.01 -0.02,0.01 -0.01,0 -0.02,-0.01 -0.03,-0.01 -0.01,-0.01 -0.01,-0.02 -0.01,-0.03 0,-0.02 0,-0.03 0.01,-0.04 0,-0.01 0.01,-0.02 0.02,-0.02 0.01,-0.01 0.01,-0.01 0.02,-0.01 0.01,0 0.01,0 0.02,0 0,0 0,0 0.01,0.01l-0.01 0.02zm0 0.07l0.02 -0.1 0.03 0 -0.02 0.1 -0.03 0zm0.03 -0.13c0,0 0,-0.01 0,-0.01 0.01,0 0.01,-0.01 0.02,-0.01 0,0 0,0.01 0,0.01 0.01,0 0.01,0 0.01,0.01 0,0 0,0.01 -0.01,0.01 0,0.01 -0.01,0.01 -0.01,0.01 0,0 -0.01,0 -0.01,-0.01 0,0 0,0 0,-0.01zm0.03 0.09c0,-0.01 0,-0.02 0,-0.03 0.01,-0.01 0.01,-0.02 0.02,-0.02 0.01,-0.01 0.02,-0.01 0.03,-0.01 0.01,0 0.01,0 0.02,0.01 0,0 0.01,0.01 0.01,0.02 0,0.01 -0.01,0.02 -0.02,0.03 -0.01,0 -0.02,0.01 -0.04,0.01 0,0.01 0.01,0.01 0.01,0.01 0,0 0,0 0.01,0 0.01,0 0.01,0 0.03,0l-0.01 0.02c-0.01,0 -0.02,0.01 -0.03,0.01 -0.01,0 -0.02,-0.01 -0.02,-0.01 -0.01,-0.01 -0.01,-0.02 -0.01,-0.04zm0.02 -0.01c0.01,0 0.02,0 0.02,-0.01 0.01,0 0.01,-0.01 0.01,-0.01 0,0 0,0 0,-0.01 0,0 -0.01,0 -0.01,0 0,0 -0.01,0.01 -0.01,0.01 0,0.01 0,0.01 -0.01,0.02zm0.13 -0.01c0,0 0,-0.01 0,-0.01 0,0 -0.01,-0.01 -0.01,-0.01 0,0 -0.01,0.01 -0.01,0.01 0,0 -0.01,0 -0.01,0.01l-0.01 0.06 -0.03 0 0.02 -0.1 0.02 0 0 0.01c0.01,0 0.02,-0.01 0.03,-0.01 0.01,0 0.02,0 0.02,0.01 0,0 0,0.01 0,0.01 0,0.01 0,0.01 0,0.02l-0.01 0.06 -0.03 0 0.02 -0.06zm0.1 -0.01l-0.02 0 -0.01 0.04c0,0 0,0 0,0 0,0.01 0,0.01 0.01,0.01 0.01,0 0.01,0 0.02,0l-0.01 0.02c-0.01,0 -0.02,0.01 -0.02,0.01 -0.01,0 -0.02,-0.01 -0.02,-0.01 -0.01,0 -0.01,-0.01 -0.01,-0.02 0,0 0,0 0,-0.01l0.01 -0.04 -0.01 0 0 -0.03 0.01 0 0.01 -0.02 0.03 0 -0.01 0.02 0.03 0 -0.01 0.03zm0 0.07l0.02 -0.1 0.03 0 -0.02 0.1 -0.03 0zm0.03 -0.13c0,0 0,-0.01 0,-0.01 0,0 0.01,-0.01 0.01,-0.01 0.01,0 0.01,0.01 0.01,0.01 0.01,0 0.01,0 0.01,0.01 0,0 0,0.01 -0.01,0.01 0,0.01 -0.01,0.01 -0.01,0.01 -0.01,0 -0.01,0 -0.01,-0.01 0,0 0,0 0,-0.01zm0.03 0.06l0 -0.03 0.02 0 0 -0.01c0,-0.01 0.01,-0.02 0.01,-0.03 0.01,0 0.02,-0.01 0.03,-0.01 0.01,0 0.01,0 0.02,0l-0.01 0.03c0,0 0,0 -0.01,0 -0.01,0 -0.01,0 -0.01,0.01l-0.01 0.01 0.03 0 -0.01 0.03 -0.02 0 -0.01 0.08c-0.01,0.01 -0.01,0.02 -0.02,0.03 -0.01,0.01 -0.02,0.01 -0.03,0.01 0,0 -0.01,0 -0.01,0l0 -0.03c0.01,0 0.01,0 0.01,0 0.01,0 0.01,0 0.01,0 0.01,0 0.01,-0.01 0.01,-0.02l0.01 -0.07 -0.01 0zm0.06 0.07l0.02 -0.1 0.03 0 -0.02 0.1 -0.03 0zm0.02 -0.13c0,0 0.01,-0.01 0.01,-0.01 0,0 0.01,-0.01 0.01,-0.01 0.01,0 0.01,0.01 0.01,0.01 0,0 0.01,0 0.01,0.01 0,0 -0.01,0.01 -0.01,0.01 0,0.01 -0.01,0.01 -0.01,0.01 -0.01,0 -0.01,0 -0.01,-0.01 -0.01,0 -0.01,0 -0.01,-0.01zm0.1 0.06c0,0 0,0 -0.01,0 0,-0.01 0,-0.01 0,-0.01 -0.01,0 -0.02,0.01 -0.02,0.01 -0.01,0.01 -0.01,0.02 -0.01,0.03 0,0.01 0,0.02 0.01,0.02 0,0 0,0 0.01,0 0,0 0.01,0 0.02,0l-0.01 0.02c-0.01,0 -0.01,0.01 -0.02,0.01 -0.01,0 -0.02,-0.01 -0.03,-0.01 0,-0.01 -0.01,-0.02 -0.01,-0.03 0,-0.02 0.01,-0.03 0.01,-0.04 0.01,-0.01 0.01,-0.02 0.02,-0.02 0.01,-0.01 0.02,-0.01 0.03,-0.01 0,0 0,0 0.01,0 0,0 0,0 0.01,0.01l-0.01 0.02zm0.11 -0.03l-0.02 0.05 0.03 0 -0.01 -0.05zm0 -0.04l0.03 0 0.01 0.14 -0.03 0 0 -0.03 -0.04 0 -0.01 0.03 -0.03 0 0.07 -0.14zm0.12 0.08c0,0 0,-0.01 0,-0.01 0,0 0,-0.01 0,-0.01 -0.01,0 -0.01,0.01 -0.01,0.01 -0.01,0 -0.01,0 -0.02,0.01l-0.01 0.06 -0.02 0 0.01 -0.1 0.03 0 0 0.01c0.01,0 0.02,-0.01 0.03,-0.01 0.01,0 0.01,0 0.01,0.01 0.01,0 0.01,0.01 0.01,0.01 0,0.01 0,0.01 0,0.02l-0.01 0.06 -0.03 0 0.01 -0.06zm0.07 0.03c0,0.01 0,0.01 0.01,0.01 0,0 0,0 0,0 0.01,0 0.01,-0.01 0.01,-0.01l0.01 -0.04c0,-0.01 -0.01,-0.01 -0.01,-0.01 0,0 -0.01,0 -0.01,0.01 0,0 -0.01,0.01 -0.01,0.01 0,0.01 0,0.02 0,0.03zm-0.03 0c0,-0.01 0,-0.03 0.01,-0.04 0,-0.01 0.01,-0.02 0.02,-0.02 0.01,-0.01 0.02,-0.01 0.03,-0.01 0.01,0 0.01,0 0.02,0 0,0 0.01,0.01 0.01,0.01l-0.01 0.07c0,0 0,0 0,0 0,0 0,0.01 0,0.01 0,0 0.01,-0.01 0.01,-0.01l-0.01 0.02c0,0 0,0 0,0 -0.01,0.01 -0.01,0.01 -0.01,0.01 -0.01,0 -0.01,-0.01 -0.01,-0.01 -0.01,0 -0.01,0 -0.01,-0.01 0,0.01 -0.01,0.01 -0.01,0.01 -0.01,0 -0.01,0.01 -0.01,0.01 -0.01,0 -0.02,-0.01 -0.02,-0.01 -0.01,-0.01 -0.01,-0.02 -0.01,-0.03z"/>
   <path class="fil0" d="M0.04 0.81c0.1,0.04 0.2,0.05 0.29,0.05 0.05,0 0.09,-0.01 0.12,-0.03 0.04,-0.02 0.06,-0.05 0.06,-0.08 0,-0.03 -0.01,-0.05 -0.04,-0.07 -0.02,-0.02 -0.05,-0.04 -0.1,-0.07 -0.05,-0.04 -0.09,-0.06 -0.12,-0.09 -0.03,-0.02 -0.06,-0.06 -0.08,-0.09 -0.02,-0.04 -0.03,-0.08 -0.03,-0.13 0,-0.11 0.03,-0.18 0.11,-0.23 0.07,-0.05 0.17,-0.07 0.28,-0.07 0.1,0 0.19,0.01 0.27,0.04l-0.03 0.19c-0.05,-0.02 -0.1,-0.03 -0.14,-0.04 -0.04,-0.01 -0.08,-0.02 -0.12,-0.02 -0.04,0 -0.08,0.01 -0.1,0.03 -0.03,0.02 -0.04,0.05 -0.04,0.08 0,0.02 0.01,0.05 0.04,0.07 0.02,0.02 0.06,0.05 0.1,0.08 0.05,0.03 0.09,0.06 0.12,0.08 0.03,0.02 0.05,0.05 0.08,0.09 0.02,0.04 0.03,0.08 0.03,0.12 0,0.07 -0.02,0.12 -0.06,0.17 -0.03,0.04 -0.08,0.08 -0.14,0.11 -0.07,0.02 -0.14,0.04 -0.22,0.04 -0.06,0 -0.12,-0.01 -0.16,-0.02 -0.05,-0.01 -0.1,-0.03 -0.15,-0.05l0.03 -0.16zm1.3 -0.52l-0.17 0.34 0.22 0 -0.05 -0.34zm-0.06 -0.27l0.22 0 0.19 0.99 -0.23 0 -0.04 -0.2 -0.35 0 -0.1 0.2 -0.23 0 0.54 -0.99zm1.32 0.21c-0.07,-0.03 -0.14,-0.04 -0.22,-0.04 -0.07,0 -0.14,0.01 -0.19,0.05 -0.06,0.03 -0.1,0.08 -0.13,0.14 -0.03,0.06 -0.05,0.13 -0.05,0.21 0,0.08 0.02,0.14 0.06,0.19 0.04,0.05 0.1,0.07 0.18,0.07 0.03,0 0.05,0 0.08,0l0.03 -0.2 -0.18 0 0.03 -0.18 0.41 0 -0.09 0.5c-0.1,0.04 -0.21,0.07 -0.32,0.07 -0.09,0 -0.17,-0.02 -0.23,-0.06 -0.07,-0.03 -0.12,-0.08 -0.15,-0.15 -0.04,-0.06 -0.05,-0.14 -0.05,-0.22 0,-0.12 0.02,-0.23 0.08,-0.32 0.06,-0.09 0.13,-0.16 0.23,-0.21 0.1,-0.05 0.21,-0.08 0.32,-0.08 0.09,0 0.16,0.01 0.22,0.03l-0.03 0.2zm0.59 0.06l-0.18 0.34 0.23 0 -0.05 -0.34zm-0.06 -0.27l0.22 0 0.18 0.99 -0.23 0 -0.03 -0.2 -0.35 0 -0.11 0.2 -0.22 0 0.54 -0.99z"/>
  </g>
 </g>
</svg>
