<?xml version="1.0" encoding="UTF-8"?>
<!DOCTYPE svg PUBLIC "-//W3C//DTD SVG 1.0//EN" "http://www.w3.org/TR/2001/REC-SVG-20010904/DTD/svg10.dtd">
<!-- Creator: CorelDRAW 2019 (64-Bit Evaluation Version) -->
<svg xmlns="http://www.w3.org/2000/svg" xml:space="preserve" width="192px" height="64px" version="1.0" style="shape-rendering:geometricPrecision; text-rendering:geometricPrecision; image-rendering:optimizeQuality; fill-rule:evenodd; clip-rule:evenodd"
viewBox="0 0 13.41 4.47"
 xmlns:xlink="http://www.w3.org/1999/xlink">
 <defs>
  <style type="text/css">
   <![CDATA[
    .fil0 {fill:#3459A3}
    .fil2 {fill:white}
    .fil3 {fill:#3459A3;fill-rule:nonzero}
    .fil1 {fill:white;fill-rule:nonzero}
   ]]>
  </style>
 </defs>
 <g id="Layer_x0020_1">
  <metadata id="CorelCorpID_0Corel-Layer"/>
  <polygon class="fil0" points="0,0 13.41,0 13.41,2.89 0,2.89 "/>
  <path class="fil1" d="M0.91 0.99l0 0.28 0.12 0 0 1.09 0.92 0 0 -1.09 0.12 0 0 -0.28 -0.12 0 0 -0.48 -0.28 0c-0.07,0.15 -0.17,0.26 -0.29,0.34 -0.12,0.07 -0.28,0.12 -0.47,0.14zm2.19 0.76l0.68 0c0,-0.24 -0.05,-0.42 -0.15,-0.56 -0.12,-0.16 -0.32,-0.25 -0.6,-0.25 -0.2,0 -0.38,0.06 -0.52,0.18 -0.17,0.13 -0.25,0.32 -0.25,0.56 0,0.25 0.09,0.43 0.27,0.55 0.16,0.1 0.38,0.15 0.65,0.15 0.09,0 0.18,-0.01 0.28,-0.03 0.12,-0.02 0.23,-0.05 0.32,-0.1l0 -0.19c-0.13,0.04 -0.24,0.06 -0.34,0.06 -0.12,0 -0.2,-0.03 -0.26,-0.09 -0.05,-0.06 -0.08,-0.15 -0.08,-0.28zm0 -0.24c0,-0.09 0.02,-0.16 0.05,-0.21 0.03,-0.06 0.06,-0.08 0.11,-0.08 0.04,0 0.08,0.02 0.11,0.07 0.03,0.05 0.05,0.13 0.05,0.22l-0.32 0zm0.85 -0.52l0 1.37 0.92 0 0 -0.85c0,-0.05 0.03,-0.09 0.1,-0.14 0.03,-0.02 0.09,-0.05 0.18,-0.1l0 -0.28c-0.06,0 -0.11,0.01 -0.15,0.02 -0.03,0.02 -0.08,0.04 -0.13,0.08l0 -0.1 -0.92 0zm1.38 0l0 1.37 0.92 0 0 -0.85c0,-0.05 0.03,-0.09 0.1,-0.14 0.03,-0.02 0.09,-0.05 0.18,-0.1l0 -0.28c-0.06,0 -0.11,0.01 -0.15,0.02 -0.04,0.02 -0.08,0.04 -0.13,0.08l0 -0.1 -0.92 0zm2.22 0.76l0.68 0c0,-0.24 -0.05,-0.42 -0.15,-0.56 -0.13,-0.16 -0.33,-0.25 -0.61,-0.25 -0.2,0 -0.37,0.06 -0.52,0.18 -0.16,0.13 -0.25,0.32 -0.25,0.56 0,0.25 0.09,0.43 0.28,0.55 0.16,0.1 0.37,0.15 0.64,0.15 0.09,0 0.19,-0.01 0.28,-0.03 0.13,-0.02 0.23,-0.05 0.33,-0.1l0 -0.19c-0.13,0.04 -0.25,0.06 -0.35,0.06 -0.11,0 -0.2,-0.03 -0.25,-0.09 -0.06,-0.06 -0.08,-0.15 -0.08,-0.28zm0 -0.24c0,-0.09 0.01,-0.16 0.04,-0.21 0.03,-0.06 0.07,-0.08 0.11,-0.08 0.04,0 0.08,0.02 0.11,0.07 0.03,0.05 0.05,0.13 0.05,0.22l-0.31 0zm0.84 0.85l0.92 0 0 -0.93c0,-0.04 0.01,-0.07 0.03,-0.09 0.02,-0.03 0.05,-0.04 0.09,-0.04 0.04,0 0.07,0.01 0.09,0.04 0.02,0.02 0.03,0.05 0.03,0.09l0 0.93 0.84 0 0 -0.93c0,-0.17 -0.05,-0.29 -0.16,-0.38 -0.08,-0.06 -0.19,-0.1 -0.32,-0.1 -0.11,0 -0.22,0.01 -0.32,0.03 -0.09,0.01 -0.19,0.04 -0.28,0.08l0 -0.07 -0.92 0 0 1.37zm4.11 0l0 -1.08c0,-0.1 -0.09,-0.18 -0.28,-0.26 -0.17,-0.06 -0.33,-0.09 -0.5,-0.09 -0.15,0 -0.3,0.01 -0.45,0.03 -0.15,0.02 -0.27,0.05 -0.37,0.09l0 0.16c0.04,0 0.12,-0.01 0.22,-0.02 0.1,-0.01 0.18,-0.01 0.22,-0.01 0.07,0 0.13,0.01 0.17,0.03 0.04,0.02 0.05,0.05 0.05,0.1 0,0.02 0,0.04 0,0.06 -0.29,0 -0.51,0.03 -0.66,0.09 -0.17,0.08 -0.26,0.2 -0.26,0.36 0,0.18 0.03,0.3 0.1,0.37 0.09,0.11 0.28,0.17 0.56,0.17l1.2 0zm-0.92 -0.24c-0.05,0 -0.09,-0.02 -0.13,-0.04 -0.03,-0.02 -0.05,-0.05 -0.05,-0.1l0 -0.21c0,-0.04 0.02,-0.07 0.05,-0.09 0.03,-0.03 0.07,-0.04 0.13,-0.04l0 0.48z"/>
  <polygon class="fil2" points="0,2.89 13.41,2.89 13.41,4.47 0,4.47 "/>
  <path class="fil3" d="M0.45 4.08l-0.17 -0.38 -0.04 -0.08 0 0.26 0 0.2 -0.11 0 0 -0.64 0.15 0 0.17 0.39 0.03 0.07 0 -0.28 0 -0.18 0.11 0 0 0.64 -0.14 0zm0.27 0l0 -0.64 0.39 0 0 0.11 -0.26 0 0 0.15 0.25 0 0 0.1 -0.25 0 0 0.18 0.26 0 0 0.1 -0.39 0zm0.52 0l0 -0.09 0.29 -0.44 -0.29 0 0 -0.11 0.44 0 0 0.1 -0.29 0.43 0.29 0 0 0.11 -0.44 0zm0.57 -0.54l0 -0.1 0.4 0 0 0.1 -0.14 0 0 0.44 0.14 0 0 0.1 -0.4 0 0 -0.1 0.14 0 0 -0.44 -0.14 0zm0.97 0.35c0,0.03 0,0.06 -0.02,0.09 -0.01,0.02 -0.03,0.05 -0.05,0.06 -0.02,0.02 -0.05,0.03 -0.08,0.04 -0.04,0.01 -0.07,0.01 -0.11,0.01 -0.03,0 -0.06,0 -0.1,0 -0.03,-0.01 -0.06,-0.01 -0.09,-0.02l0 -0.12c0.02,0 0.03,0.01 0.05,0.01 0.01,0.01 0.03,0.01 0.05,0.02 0.01,0 0.03,0 0.05,0 0.01,0.01 0.03,0.01 0.04,0.01 0.03,0 0.05,-0.01 0.06,-0.01 0.02,0 0.03,-0.01 0.04,-0.02 0.01,0 0.02,-0.01 0.02,-0.02 0.01,-0.01 0.01,-0.02 0.01,-0.03 0,-0.02 0,-0.03 -0.01,-0.04 -0.01,-0.01 -0.02,-0.02 -0.04,-0.03 -0.01,-0.01 -0.03,-0.01 -0.05,-0.02 -0.02,-0.01 -0.04,-0.01 -0.06,-0.02 -0.02,-0.01 -0.03,-0.02 -0.05,-0.03 -0.02,-0.01 -0.04,-0.02 -0.05,-0.03 -0.02,-0.02 -0.03,-0.03 -0.04,-0.05 -0.01,-0.02 -0.01,-0.05 -0.01,-0.07 0,-0.03 0,-0.05 0.01,-0.07 0.01,-0.03 0.03,-0.05 0.04,-0.06 0.02,-0.02 0.05,-0.03 0.08,-0.04 0.03,-0.01 0.07,-0.02 0.11,-0.02 0.01,0 0.03,0 0.04,0 0.01,0.01 0.03,0.01 0.04,0.01 0.01,0 0.03,0 0.04,0.01 0.01,0 0.02,0 0.03,0l0 0.11c-0.01,0 -0.02,0 -0.03,-0.01 -0.01,0 -0.02,0 -0.04,-0.01 -0.01,0 -0.02,0 -0.04,0 -0.01,0 -0.02,0 -0.04,0 -0.02,0 -0.03,0 -0.05,0 -0.01,0 -0.03,0.01 -0.04,0.01 0,0.01 -0.01,0.02 -0.02,0.03 0,0.01 0,0.02 0,0.03 0,0.01 0,0.02 0.01,0.03 0.01,0.01 0.02,0.02 0.04,0.03 0.01,0 0.03,0.01 0.05,0.02 0.02,0 0.04,0.01 0.05,0.02 0.02,0.01 0.04,0.02 0.06,0.03 0.02,0.01 0.04,0.02 0.05,0.03 0.02,0.02 0.03,0.03 0.04,0.05 0.01,0.02 0.01,0.04 0.01,0.07zm0.43 0.19l-0.19 -0.31 0 0.31 -0.12 0 0 -0.64 0.12 0 0 0.29 0.19 -0.29 0.14 0 -0.21 0.31 0.23 0.33 -0.16 0zm0.71 -0.32c0,0.06 -0.01,0.11 -0.03,0.15 -0.01,0.04 -0.03,0.08 -0.05,0.1 -0.02,0.03 -0.05,0.05 -0.08,0.06 -0.04,0.02 -0.07,0.02 -0.11,0.02 -0.08,0 -0.14,-0.03 -0.19,-0.08 -0.04,-0.06 -0.06,-0.14 -0.06,-0.24 0,-0.06 0.01,-0.11 0.02,-0.15 0.02,-0.05 0.03,-0.08 0.06,-0.11 0.02,-0.02 0.05,-0.04 0.08,-0.06 0.03,-0.01 0.07,-0.02 0.1,-0.02 0.09,0 0.15,0.03 0.19,0.09 0.04,0.05 0.07,0.13 0.07,0.24zm-0.13 0.01c0,-0.08 -0.01,-0.14 -0.03,-0.17 -0.02,-0.04 -0.06,-0.06 -0.1,-0.06 -0.02,0 -0.04,0.01 -0.06,0.02 -0.02,0 -0.03,0.02 -0.04,0.04 -0.01,0.02 -0.02,0.04 -0.02,0.07 -0.01,0.02 -0.01,0.05 -0.01,0.09 0,0.08 0.01,0.13 0.03,0.17 0.02,0.04 0.05,0.05 0.1,0.05 0.02,0 0.04,0 0.06,-0.01 0.01,-0.01 0.03,-0.02 0.04,-0.04 0.01,-0.02 0.02,-0.04 0.02,-0.07 0.01,-0.03 0.01,-0.06 0.01,-0.09zm0.5 0.31l-0.16 0 -0.2 -0.64 0.14 0 0.11 0.39 0.03 0.12 0.04 -0.13 0.1 -0.38 0.13 0 -0.19 0.64zm0.61 0l-0.04 -0.12 -0.22 0 -0.04 0.12 -0.11 0 0.18 -0.64 0.17 0 0.19 0.64 -0.13 0zm-0.15 -0.52l-0.08 0.3 0.17 0 -0.09 -0.3zm0.07 -0.18l-0.12 0 0.11 -0.11 0.16 0 -0.15 0.11zm1.04 0.43l0 -0.1 0.23 0 0 0.34c-0.03,0.02 -0.06,0.03 -0.1,0.03 -0.03,0.01 -0.06,0.01 -0.1,0.01 -0.04,0 -0.08,0 -0.12,-0.02 -0.03,-0.01 -0.06,-0.03 -0.09,-0.06 -0.02,-0.03 -0.04,-0.06 -0.06,-0.1 -0.01,-0.04 -0.02,-0.09 -0.02,-0.14 0,-0.05 0.01,-0.1 0.03,-0.14 0.01,-0.04 0.03,-0.08 0.06,-0.11 0.02,-0.03 0.06,-0.05 0.09,-0.06 0.04,-0.02 0.09,-0.03 0.14,-0.03 0.03,0 0.05,0.01 0.08,0.01 0.03,0 0.06,0.01 0.08,0.02l0 0.12c-0.02,-0.01 -0.05,-0.02 -0.08,-0.03 -0.02,-0.01 -0.05,-0.01 -0.08,-0.01 -0.03,0 -0.06,0 -0.08,0.02 -0.03,0.01 -0.04,0.02 -0.06,0.04 -0.02,0.02 -0.03,0.04 -0.04,0.07 0,0.03 -0.01,0.06 -0.01,0.1 0,0.03 0.01,0.06 0.01,0.09 0.01,0.02 0.02,0.05 0.03,0.07 0.02,0.02 0.03,0.03 0.06,0.04 0.02,0.01 0.04,0.02 0.07,0.02 0.01,0 0.02,0 0.02,-0.01 0.01,0 0.02,0 0.02,0 0,0 0.01,0 0.01,0 0.01,0 0.01,0 0.02,-0.01l0 -0.16 -0.11 0zm0.36 0.27l0 -0.64 0.39 0 0 0.11 -0.27 0 0 0.15 0.25 0 0 0.1 -0.25 0 0 0.18 0.27 0 0 0.1 -0.39 0zm0.99 -0.32c0,0.06 0,0.11 -0.02,0.15 -0.01,0.04 -0.03,0.08 -0.05,0.1 -0.03,0.03 -0.05,0.05 -0.09,0.06 -0.03,0.02 -0.06,0.02 -0.1,0.02 -0.08,0 -0.14,-0.03 -0.19,-0.08 -0.04,-0.06 -0.06,-0.14 -0.06,-0.24 0,-0.06 0.01,-0.11 0.02,-0.15 0.01,-0.05 0.03,-0.08 0.06,-0.11 0.02,-0.02 0.05,-0.04 0.08,-0.06 0.03,-0.01 0.06,-0.02 0.1,-0.02 0.08,0 0.15,0.03 0.19,0.09 0.04,0.05 0.06,0.13 0.06,0.24zm-0.12 0.01c0,-0.08 -0.01,-0.14 -0.03,-0.17 -0.02,-0.04 -0.06,-0.06 -0.1,-0.06 -0.03,0 -0.05,0.01 -0.06,0.02 -0.02,0 -0.03,0.02 -0.04,0.04 -0.01,0.02 -0.02,0.04 -0.03,0.07 0,0.02 0,0.05 0,0.09 0,0.08 0.01,0.13 0.03,0.17 0.02,0.04 0.05,0.05 0.1,0.05 0.02,0 0.04,0 0.06,-0.01 0.01,-0.01 0.03,-0.02 0.04,-0.04 0.01,-0.02 0.01,-0.04 0.02,-0.07 0,-0.03 0.01,-0.06 0.01,-0.09zm0.21 -0.23l0 -0.1 0.41 0 0 0.1 -0.14 0 0 0.44 0.14 0 0 0.1 -0.41 0 0 -0.1 0.14 0 0 -0.44 -0.14 0zm0.84 0.54l-0.17 -0.38 -0.03 -0.08 0 0.26 0 0.2 -0.11 0 0 -0.64 0.14 0 0.18 0.39 0.03 0.07 0 -0.28 0 -0.18 0.11 0 0 0.64 -0.15 0zm0.4 -0.53l0 0.17 0.24 0 0 0.1 -0.24 0 0 0.26 -0.12 0 0 -0.64 0.38 0 0 0.11 -0.26 0zm0.87 0.21c0,0.06 -0.01,0.11 -0.02,0.15 -0.01,0.04 -0.03,0.08 -0.05,0.1 -0.03,0.03 -0.06,0.05 -0.09,0.06 -0.03,0.02 -0.06,0.02 -0.1,0.02 -0.08,0 -0.15,-0.03 -0.19,-0.08 -0.04,-0.06 -0.06,-0.14 -0.06,-0.24 0,-0.06 0,-0.11 0.02,-0.15 0.01,-0.05 0.03,-0.08 0.05,-0.11 0.03,-0.02 0.06,-0.04 0.09,-0.06 0.03,-0.01 0.06,-0.02 0.1,-0.02 0.08,0 0.15,0.03 0.19,0.09 0.04,0.05 0.06,0.13 0.06,0.24zm-0.13 0.01c0,-0.08 -0.01,-0.14 -0.03,-0.17 -0.02,-0.04 -0.05,-0.06 -0.1,-0.06 -0.02,0 -0.04,0.01 -0.05,0.02 -0.02,0 -0.03,0.02 -0.04,0.04 -0.02,0.02 -0.02,0.04 -0.03,0.07 0,0.02 -0.01,0.05 -0.01,0.09 0,0.08 0.01,0.13 0.04,0.17 0.02,0.04 0.05,0.05 0.09,0.05 0.03,0 0.05,0 0.06,-0.01 0.02,-0.01 0.03,-0.02 0.04,-0.04 0.01,-0.02 0.02,-0.04 0.03,-0.07 0,-0.03 0,-0.06 0,-0.09zm0.53 0.31l-0.09 -0.2c0,-0.02 -0.02,-0.04 -0.03,-0.05 -0.02,-0.01 -0.03,-0.01 -0.05,-0.01l-0.03 0 0 0.26 -0.12 0 0 -0.64 0.19 0c0.03,0 0.07,0.01 0.09,0.01 0.03,0.01 0.06,0.02 0.08,0.03 0.02,0.02 0.03,0.03 0.04,0.06 0.01,0.02 0.02,0.05 0.02,0.08 0,0.02 0,0.04 -0.01,0.06 -0.01,0.02 -0.02,0.04 -0.03,0.05 -0.01,0.01 -0.03,0.02 -0.04,0.03 -0.02,0.01 -0.04,0.01 -0.06,0.02 0.02,0 0.03,0.01 0.04,0.02 0.02,0.02 0.03,0.04 0.04,0.07l0.11 0.21 -0.15 0zm-0.03 -0.45c0,-0.03 -0.01,-0.05 -0.03,-0.07 -0.02,-0.01 -0.05,-0.02 -0.08,-0.02l-0.06 0 0 0.18 0.05 0c0.02,0 0.04,0 0.05,0 0.02,-0.01 0.03,-0.01 0.04,-0.02 0.01,-0.01 0.02,-0.02 0.03,-0.03 0,-0.01 0,-0.02 0,-0.04zm0.62 0.45l-0.01 -0.36 0 -0.14 -0.04 0.09 -0.07 0.22 -0.07 0 -0.07 -0.22 -0.02 -0.09 -0.01 0.14 -0.01 0.36 -0.1 0 0.03 -0.64 0.14 0 0.05 0.19 0.03 0.1 0.03 -0.1 0.06 -0.19 0.14 0 0.03 0.64 -0.11 0zm0.54 0l-0.03 -0.12 -0.22 0 -0.04 0.12 -0.12 0 0.19 -0.64 0.17 0 0.19 0.64 -0.14 0zm-0.14 -0.52l-0.09 0.3 0.17 0 -0.08 -0.3zm0.61 -0.02l0 0.54 -0.12 0 0 -0.54 -0.17 0 0 -0.1 0.47 0 0 0.1 -0.18 0zm0.29 0l0 -0.1 0.4 0 0 0.1 -0.14 0 0 0.44 0.14 0 0 0.1 -0.4 0 0 -0.1 0.14 0 0 -0.44 -0.14 0zm0.85 0.54l-0.19 -0.31 0 0.31 -0.12 0 0 -0.64 0.12 0 0 0.29 0.19 -0.29 0.15 0 -0.22 0.31 0.23 0.33 -0.16 0zm0.59 0l-0.03 -0.12 -0.22 0 -0.04 0.12 -0.12 0 0.19 -0.64 0.17 0 0.19 0.64 -0.14 0zm-0.14 -0.52l-0.09 0.3 0.17 0 -0.08 -0.3z"/>
 </g>
</svg>
