<?xml version="1.0" encoding="UTF-8"?>
<!DOCTYPE svg PUBLIC "-//W3C//DTD SVG 1.0//EN" "http://www.w3.org/TR/2001/REC-SVG-20010904/DTD/svg10.dtd">
<!-- Creator: CorelDRAW 2019 (64-Bit Evaluation Version) -->
<svg xmlns="http://www.w3.org/2000/svg" xml:space="preserve" width="192px" height="64px" version="1.0" style="shape-rendering:geometricPrecision; text-rendering:geometricPrecision; image-rendering:optimizeQuality; fill-rule:evenodd; clip-rule:evenodd"
viewBox="0 0 11.61 3.87"
 xmlns:xlink="http://www.w3.org/1999/xlink">
 <defs>
  <style type="text/css">
   <![CDATA[
    .fil0 {fill:#61A375}
    .fil2 {fill:white}
    .fil3 {fill:#61A375;fill-rule:nonzero}
    .fil1 {fill:white;fill-rule:nonzero}
   ]]>
  </style>
 </defs>
 <g id="Layer_x0020_1">
  <metadata id="CorelCorpID_0Corel-Layer"/>
  <polygon class="fil0" points="0,0 11.61,0 11.61,2.5 0,2.5 "/>
  <path class="fil1" d="M0.79 0.86l0 0.24 0.1 0 0 0.94 0.8 0 0 -0.94 0.1 0 0 -0.24 -0.1 0 0 -0.42 -0.24 0c-0.07,0.13 -0.15,0.23 -0.26,0.29 -0.1,0.06 -0.24,0.11 -0.4,0.13zm1.9 0.66l0.59 0c0,-0.21 -0.05,-0.37 -0.13,-0.49 -0.11,-0.14 -0.29,-0.21 -0.53,-0.21 -0.17,0 -0.32,0.05 -0.45,0.15 -0.14,0.12 -0.21,0.28 -0.21,0.49 0,0.21 0.07,0.36 0.23,0.47 0.14,0.09 0.33,0.13 0.56,0.13 0.08,0 0.16,-0.01 0.25,-0.02 0.1,-0.02 0.2,-0.05 0.28,-0.09l0 -0.16c-0.12,0.03 -0.22,0.05 -0.3,0.05 -0.1,0 -0.18,-0.03 -0.22,-0.08 -0.05,-0.06 -0.07,-0.14 -0.07,-0.24zm0 -0.21c0,-0.08 0.01,-0.14 0.04,-0.19 0.02,-0.04 0.05,-0.07 0.09,-0.07 0.04,0 0.07,0.03 0.1,0.07 0.02,0.04 0.04,0.11 0.04,0.19l-0.27 0zm0.73 -0.45l0 1.18 0.8 0 0 -0.73c0,-0.04 0.03,-0.08 0.08,-0.12 0.03,-0.02 0.08,-0.05 0.16,-0.09l0 -0.24c-0.05,0 -0.09,0.01 -0.13,0.02 -0.03,0.01 -0.07,0.03 -0.11,0.07l0 -0.09 -0.8 0zm1.19 0l0 1.18 0.8 0 0 -0.73c0,-0.04 0.03,-0.08 0.08,-0.12 0.03,-0.02 0.08,-0.05 0.16,-0.09l0 -0.24c-0.05,0 -0.09,0.01 -0.12,0.02 -0.04,0.01 -0.08,0.03 -0.12,0.07l0 -0.09 -0.8 0zm1.93 0.66l0.58 0c0,-0.21 -0.04,-0.37 -0.13,-0.49 -0.1,-0.14 -0.28,-0.21 -0.52,-0.21 -0.17,0 -0.32,0.05 -0.45,0.15 -0.14,0.12 -0.22,0.28 -0.22,0.49 0,0.21 0.08,0.36 0.24,0.47 0.14,0.09 0.33,0.13 0.56,0.13 0.08,0 0.16,-0.01 0.24,-0.02 0.11,-0.02 0.2,-0.05 0.28,-0.09l0 -0.16c-0.11,0.03 -0.21,0.05 -0.29,0.05 -0.1,0 -0.18,-0.03 -0.22,-0.08 -0.05,-0.06 -0.07,-0.14 -0.07,-0.24zm0 -0.21c0,-0.08 0.01,-0.14 0.03,-0.19 0.03,-0.04 0.06,-0.07 0.1,-0.07 0.03,0 0.07,0.03 0.09,0.07 0.03,0.04 0.05,0.11 0.05,0.19l-0.27 0zm0.73 0.73l0.8 0 0 -0.8c0,-0.03 0,-0.06 0.02,-0.08 0.02,-0.02 0.04,-0.03 0.08,-0.03 0.03,0 0.06,0.01 0.08,0.03 0.01,0.02 0.02,0.05 0.02,0.08l0 0.8 0.73 0 0 -0.8c0,-0.14 -0.05,-0.25 -0.14,-0.33 -0.07,-0.06 -0.17,-0.09 -0.28,-0.09 -0.1,0 -0.19,0.01 -0.27,0.03 -0.09,0.01 -0.17,0.03 -0.24,0.07l0 -0.06 -0.8 0 0 1.18zm3.55 0l0 -0.93c0,-0.09 -0.08,-0.16 -0.24,-0.22 -0.14,-0.06 -0.29,-0.09 -0.43,-0.09 -0.13,0 -0.26,0.01 -0.39,0.03 -0.13,0.02 -0.23,0.05 -0.32,0.08l0 0.14c0.04,0 0.1,-0.01 0.19,-0.02 0.09,-0.01 0.15,-0.01 0.19,-0.01 0.06,0 0.11,0.01 0.14,0.02 0.04,0.02 0.05,0.05 0.05,0.1 0,0.01 0,0.03 0,0.05 -0.25,0 -0.44,0.02 -0.57,0.08 -0.15,0.06 -0.23,0.16 -0.23,0.31 0,0.15 0.03,0.26 0.09,0.32 0.08,0.09 0.24,0.14 0.48,0.14l1.04 0zm-0.8 -0.21c-0.04,0 -0.07,-0.01 -0.1,-0.03 -0.03,-0.02 -0.05,-0.05 -0.05,-0.08l0 -0.19c0,-0.03 0.02,-0.06 0.04,-0.08 0.03,-0.02 0.07,-0.03 0.11,-0.03l0 0.41z"/>
  <polygon class="fil2" points="0,2.5 11.61,2.5 11.61,3.87 0,3.87 "/>
  <path class="fil3" d="M0.37 2.98l0 0.47 -0.11 0 0 -0.47 -0.15 0 0 -0.09 0.41 0 0 0.09 -0.15 0zm0.65 0.19c0,0.05 -0.01,0.09 -0.02,0.13 -0.01,0.03 -0.03,0.06 -0.05,0.09 -0.02,0.02 -0.04,0.04 -0.07,0.05 -0.03,0.01 -0.06,0.02 -0.09,0.02 -0.07,0 -0.13,-0.03 -0.16,-0.08 -0.04,-0.05 -0.06,-0.12 -0.06,-0.21 0,-0.05 0.01,-0.09 0.02,-0.13 0.01,-0.03 0.03,-0.06 0.05,-0.09 0.02,-0.02 0.04,-0.04 0.07,-0.05 0.03,-0.01 0.06,-0.02 0.09,-0.02 0.07,0 0.12,0.03 0.16,0.08 0.04,0.04 0.06,0.11 0.06,0.21zm-0.11 0c0,-0.06 -0.01,-0.11 -0.03,-0.14 -0.02,-0.04 -0.05,-0.05 -0.09,-0.05 -0.02,0 -0.03,0 -0.05,0.01 -0.01,0.01 -0.02,0.02 -0.03,0.04 -0.01,0.01 -0.02,0.03 -0.02,0.06 -0.01,0.02 -0.01,0.05 -0.01,0.08 0,0.06 0.01,0.11 0.03,0.14 0.02,0.04 0.04,0.05 0.08,0.05 0.02,0 0.04,0 0.06,-0.01 0.01,-0.01 0.02,-0.02 0.03,-0.04 0.01,-0.01 0.02,-0.03 0.02,-0.06 0,-0.02 0.01,-0.05 0.01,-0.08zm0.56 -0.1c0,0.03 0,0.05 -0.01,0.08 -0.01,0.02 -0.03,0.04 -0.04,0.06 -0.02,0.02 -0.05,0.03 -0.08,0.04 -0.02,0.01 -0.06,0.02 -0.09,0.02l-0.06 0 0 0.18 -0.1 0 0 -0.56 0.16 0c0.04,0 0.07,0.01 0.1,0.01 0.02,0.01 0.05,0.02 0.07,0.04 0.01,0.01 0.03,0.03 0.04,0.05 0.01,0.03 0.01,0.05 0.01,0.08zm-0.11 0.01c0,-0.02 0,-0.03 0,-0.04 -0.01,-0.02 -0.02,-0.03 -0.02,-0.03 -0.01,-0.01 -0.03,-0.02 -0.04,-0.02 -0.02,-0.01 -0.03,-0.01 -0.05,-0.01l-0.06 0 0 0.2 0.06 0c0.02,0 0.04,0 0.05,-0.01 0.01,0 0.02,-0.01 0.03,-0.02 0.01,-0.01 0.02,-0.02 0.03,-0.03 0,-0.01 0,-0.03 0,-0.04zm0.61 0.09c0,0.05 -0.01,0.09 -0.02,0.13 -0.01,0.03 -0.03,0.06 -0.05,0.09 -0.02,0.02 -0.04,0.04 -0.07,0.05 -0.03,0.01 -0.06,0.02 -0.09,0.02 -0.07,0 -0.13,-0.03 -0.16,-0.08 -0.04,-0.05 -0.06,-0.12 -0.06,-0.21 0,-0.05 0.01,-0.09 0.02,-0.13 0.01,-0.03 0.03,-0.06 0.05,-0.09 0.02,-0.02 0.04,-0.04 0.07,-0.05 0.03,-0.01 0.06,-0.02 0.09,-0.02 0.07,0 0.13,0.03 0.16,0.08 0.04,0.04 0.06,0.11 0.06,0.21zm-0.11 0c0,-0.06 -0.01,-0.11 -0.03,-0.14 -0.02,-0.04 -0.04,-0.05 -0.08,-0.05 -0.02,0 -0.04,0 -0.06,0.01 -0.01,0.01 -0.02,0.02 -0.03,0.04 -0.01,0.01 -0.02,0.03 -0.02,0.06 0,0.02 -0.01,0.05 -0.01,0.08 0,0.06 0.01,0.11 0.03,0.14 0.02,0.04 0.05,0.05 0.09,0.05 0.02,0 0.03,0 0.05,-0.01 0.01,-0.01 0.02,-0.02 0.03,-0.04 0.01,-0.01 0.02,-0.03 0.02,-0.06 0.01,-0.02 0.01,-0.05 0.01,-0.08zm0.84 0.04l0 -0.08 0.2 0 0 0.29c-0.03,0.01 -0.06,0.02 -0.08,0.03 -0.03,0 -0.06,0.01 -0.09,0.01 -0.04,0 -0.08,-0.01 -0.11,-0.02 -0.03,-0.01 -0.05,-0.03 -0.07,-0.06 -0.03,-0.02 -0.04,-0.05 -0.05,-0.08 -0.01,-0.04 -0.02,-0.08 -0.02,-0.12 0,-0.05 0.01,-0.09 0.02,-0.13 0.01,-0.03 0.03,-0.06 0.05,-0.09 0.02,-0.02 0.05,-0.04 0.08,-0.06 0.04,-0.01 0.08,-0.02 0.12,-0.02 0.02,0 0.05,0.01 0.07,0.01 0.03,0 0.05,0.01 0.08,0.02l0 0.1c-0.03,-0.01 -0.05,-0.02 -0.07,-0.02 -0.03,-0.01 -0.05,-0.01 -0.08,-0.01 -0.03,0 -0.05,0 -0.07,0.01 -0.02,0.01 -0.04,0.02 -0.05,0.04 -0.01,0.01 -0.02,0.04 -0.03,0.06 -0.01,0.02 -0.01,0.05 -0.01,0.08 0,0.03 0,0.06 0.01,0.08 0,0.02 0.01,0.04 0.02,0.06 0.02,0.02 0.03,0.03 0.05,0.04 0.02,0.01 0.04,0.01 0.07,0.01 0.01,0 0.01,0 0.02,0 0,0 0.01,0 0.01,0 0,0 0.01,0 0.01,0 0.01,0 0.01,-0.01 0.01,-0.01l0 -0.14 -0.09 0zm0.31 0.24l0 -0.56 0.34 0 0 0.09 -0.23 0 0 0.14 0.22 0 0 0.08 -0.22 0 0 0.16 0.23 0 0 0.09 -0.34 0zm0.86 -0.28c0,0.05 0,0.09 -0.02,0.13 -0.01,0.03 -0.02,0.06 -0.04,0.09 -0.02,0.02 -0.05,0.04 -0.08,0.05 -0.02,0.01 -0.05,0.02 -0.08,0.02 -0.08,0 -0.13,-0.03 -0.17,-0.08 -0.03,-0.05 -0.05,-0.12 -0.05,-0.21 0,-0.05 0,-0.09 0.01,-0.13 0.02,-0.03 0.03,-0.06 0.05,-0.09 0.02,-0.02 0.05,-0.04 0.07,-0.05 0.03,-0.01 0.06,-0.02 0.09,-0.02 0.08,0 0.13,0.03 0.17,0.08 0.03,0.04 0.05,0.11 0.05,0.21zm-0.11 0c0,-0.06 -0.01,-0.11 -0.02,-0.14 -0.02,-0.04 -0.05,-0.05 -0.09,-0.05 -0.02,0 -0.04,0 -0.05,0.01 -0.02,0.01 -0.03,0.02 -0.04,0.04 -0.01,0.01 -0.01,0.03 -0.02,0.06 0,0.02 0,0.05 0,0.08 0,0.06 0.01,0.11 0.02,0.14 0.02,0.04 0.05,0.05 0.09,0.05 0.02,0 0.04,0 0.05,-0.01 0.02,-0.01 0.03,-0.02 0.04,-0.04 0,-0.01 0.01,-0.03 0.02,-0.06 0,-0.02 0,-0.05 0,-0.08zm0.19 -0.19l0 -0.09 0.35 0 0 0.09 -0.12 0 0 0.38 0.12 0 0 0.09 -0.35 0 0 -0.09 0.12 0 0 -0.38 -0.12 0zm0.73 0.47l-0.15 -0.33 -0.03 -0.08 0 0.23 0 0.18 -0.1 0 0 -0.56 0.13 0 0.15 0.33 0.03 0.07 0 -0.24 0 -0.16 0.09 0 0 0.56 -0.12 0zm0.34 -0.47l0 0.15 0.21 0 0 0.09 -0.21 0 0 0.23 -0.1 0 0 -0.56 0.32 0 0 0.09 -0.22 0zm0.76 0.19c0,0.05 -0.01,0.09 -0.02,0.13 -0.01,0.03 -0.03,0.06 -0.05,0.09 -0.02,0.02 -0.04,0.04 -0.07,0.05 -0.03,0.01 -0.06,0.02 -0.09,0.02 -0.07,0 -0.13,-0.03 -0.16,-0.08 -0.04,-0.05 -0.06,-0.12 -0.06,-0.21 0,-0.05 0.01,-0.09 0.02,-0.13 0.01,-0.03 0.03,-0.06 0.05,-0.09 0.02,-0.02 0.04,-0.04 0.07,-0.05 0.03,-0.01 0.06,-0.02 0.09,-0.02 0.07,0 0.12,0.03 0.16,0.08 0.04,0.04 0.06,0.11 0.06,0.21zm-0.11 0c0,-0.06 -0.01,-0.11 -0.03,-0.14 -0.02,-0.04 -0.05,-0.05 -0.09,-0.05 -0.02,0 -0.03,0 -0.05,0.01 -0.01,0.01 -0.02,0.02 -0.03,0.04 -0.01,0.01 -0.02,0.03 -0.02,0.06 -0.01,0.02 -0.01,0.05 -0.01,0.08 0,0.06 0.01,0.11 0.03,0.14 0.01,0.04 0.04,0.05 0.08,0.05 0.02,0 0.04,0 0.05,-0.01 0.02,-0.01 0.03,-0.02 0.04,-0.04 0.01,-0.01 0.02,-0.03 0.02,-0.06 0,-0.02 0.01,-0.05 0.01,-0.08zm0.45 0.28l-0.07 -0.18c-0.01,-0.02 -0.02,-0.03 -0.03,-0.04 -0.02,-0.01 -0.03,-0.01 -0.05,-0.01l-0.02 0 0 0.23 -0.1 0 0 -0.56 0.16 0c0.03,0 0.06,0.01 0.08,0.01 0.02,0.01 0.05,0.01 0.06,0.03 0.02,0.01 0.03,0.02 0.04,0.04 0.01,0.02 0.02,0.05 0.02,0.08 0,0.02 -0.01,0.03 -0.01,0.05 -0.01,0.02 -0.02,0.03 -0.03,0.04 -0.01,0.01 -0.02,0.02 -0.03,0.03 -0.02,0.01 -0.04,0.01 -0.05,0.01 0.01,0.01 0.02,0.01 0.03,0.03 0.02,0.01 0.03,0.03 0.04,0.05l0.09 0.19 -0.13 0zm-0.02 -0.39c0,-0.03 -0.01,-0.05 -0.03,-0.06 -0.01,-0.01 -0.04,-0.02 -0.07,-0.02l-0.05 0 0 0.16 0.04 0c0.02,0 0.03,-0.01 0.05,-0.01 0.01,0 0.02,-0.01 0.03,-0.01 0.01,-0.01 0.02,-0.02 0.02,-0.03 0.01,-0.01 0.01,-0.02 0.01,-0.03zm0.53 0.39l-0.01 -0.32 0 -0.12 -0.03 0.08 -0.06 0.19 -0.06 0 -0.06 -0.19 -0.02 -0.08 -0.01 0.12 0 0.32 -0.09 0 0.02 -0.56 0.12 0 0.05 0.16 0.02 0.09 0.03 -0.08 0.05 -0.17 0.12 0 0.02 0.56 -0.09 0zm0.47 0l-0.03 -0.11 -0.19 0 -0.03 0.11 -0.1 0 0.16 -0.56 0.14 0 0.17 0.56 -0.12 0zm-0.12 -0.46l-0.08 0.26 0.15 0 -0.07 -0.26zm0.53 -0.01l0 0.47 -0.11 0 0 -0.47 -0.15 0 0 -0.09 0.41 0 0 0.09 -0.15 0zm0.25 0l0 -0.09 0.35 0 0 0.09 -0.12 0 0 0.38 0.12 0 0 0.09 -0.35 0 0 -0.09 0.12 0 0 -0.38 -0.12 0zm0.74 0.47l-0.17 -0.27 0 0.27 -0.1 0 0 -0.56 0.1 0 0 0.26 0.17 -0.26 0.12 0 -0.19 0.27 0.2 0.29 -0.13 0zm0.51 0l-0.03 -0.11 -0.2 0 -0.03 0.11 -0.1 0 0.16 -0.56 0.15 0 0.16 0.56 -0.11 0zm-0.13 -0.46l-0.07 0.26 0.14 0 -0.07 -0.26zm1.08 0.46l-0.01 -0.32 0 -0.12 -0.03 0.08 -0.06 0.19 -0.06 0 -0.06 -0.19 -0.02 -0.08 0 0.12 -0.01 0.32 -0.09 0 0.03 -0.56 0.11 0 0.05 0.16 0.03 0.09 0.02 -0.08 0.05 -0.17 0.12 0 0.03 0.56 -0.1 0zm0.47 0l-0.03 -0.11 -0.19 0 -0.03 0.11 -0.1 0 0.16 -0.56 0.15 0 0.16 0.56 -0.12 0zm-0.12 -0.46l-0.07 0.26 0.14 0 -0.07 -0.26zm0.68 0.08c0,0.03 0,0.05 -0.01,0.08 -0.01,0.02 -0.03,0.04 -0.05,0.06 -0.01,0.02 -0.04,0.03 -0.07,0.04 -0.02,0.01 -0.06,0.02 -0.09,0.02l-0.06 0 0 0.18 -0.1 0 0 -0.56 0.16 0c0.04,0 0.07,0.01 0.1,0.01 0.02,0.01 0.05,0.02 0.06,0.04 0.02,0.01 0.04,0.03 0.05,0.05 0.01,0.03 0.01,0.05 0.01,0.08zm-0.11 0.01c0,-0.02 0,-0.03 0,-0.04 -0.01,-0.02 -0.02,-0.03 -0.03,-0.03 0,-0.01 -0.02,-0.02 -0.03,-0.02 -0.02,-0.01 -0.03,-0.01 -0.05,-0.01l-0.06 0 0 0.2 0.06 0c0.02,0 0.03,0 0.05,-0.01 0.01,0 0.02,-0.01 0.03,-0.02 0.01,-0.01 0.02,-0.02 0.03,-0.03 0,-0.01 0,-0.03 0,-0.04zm0.44 0.17l0 0.2 -0.11 0 0 -0.2 -0.18 -0.36 0.12 0 0.08 0.17 0.03 0.09 0.04 -0.09 0.09 -0.17 0.11 0 -0.18 0.36zm-9.15 0.37l0 -0.87 0.1 0 0 0.87 -0.1 0zm7.14 0l0 -0.87 0.1 0 0 0.87 -0.1 0z"/>
 </g>
</svg>
