<?xml version="1.0" encoding="UTF-8"?>
<!DOCTYPE svg PUBLIC "-//W3C//DTD SVG 1.0//EN" "http://www.w3.org/TR/2001/REC-SVG-20010904/DTD/svg10.dtd">
<!-- Creator: CorelDRAW 2019 (64-Bit Evaluation Version) -->
<svg xmlns="http://www.w3.org/2000/svg" xml:space="preserve" width="192px" height="64px" version="1.0" style="shape-rendering:geometricPrecision; text-rendering:geometricPrecision; image-rendering:optimizeQuality; fill-rule:evenodd; clip-rule:evenodd"
viewBox="0 0 11.64 3.88"
 xmlns:xlink="http://www.w3.org/1999/xlink">
 <defs>
  <style type="text/css">
   <![CDATA[
    .fil0 {fill:#61A375}
    .fil2 {fill:white}
    .fil3 {fill:#61A375;fill-rule:nonzero}
    .fil1 {fill:white;fill-rule:nonzero}
   ]]>
  </style>
 </defs>
 <g id="Layer_x0020_1">
  <metadata id="CorelCorpID_0Corel-Layer"/>
  <polygon class="fil0" points="0,0 11.64,0 11.64,2.51 0,2.51 "/>
  <path class="fil1" d="M0.79 0.86l0 0.24 0.1 0 0 0.95 0.8 0 0 -0.95 0.11 0 0 -0.24 -0.11 0 0 -0.42 -0.24 0c-0.06,0.13 -0.15,0.23 -0.26,0.29 -0.1,0.07 -0.23,0.11 -0.4,0.13zm1.91 0.66l0.59 0c0,-0.2 -0.05,-0.37 -0.13,-0.48 -0.11,-0.15 -0.29,-0.22 -0.53,-0.22 -0.17,0 -0.32,0.05 -0.45,0.15 -0.15,0.12 -0.22,0.28 -0.22,0.49 0,0.21 0.08,0.37 0.24,0.47 0.14,0.09 0.33,0.14 0.56,0.14 0.08,0 0.16,-0.01 0.25,-0.03 0.1,-0.02 0.2,-0.04 0.28,-0.08l0 -0.17c-0.12,0.04 -0.22,0.05 -0.3,0.05 -0.1,0 -0.18,-0.03 -0.22,-0.08 -0.05,-0.05 -0.07,-0.13 -0.07,-0.24zm0 -0.2c0,-0.09 0.01,-0.15 0.03,-0.19 0.03,-0.05 0.06,-0.07 0.1,-0.07 0.04,0 0.07,0.02 0.1,0.06 0.02,0.05 0.04,0.11 0.04,0.2l-0.27 0zm0.73 -0.46l0 1.19 0.8 0 0 -0.74c0,-0.04 0.03,-0.08 0.08,-0.12 0.03,-0.02 0.08,-0.05 0.17,-0.09l0 -0.24c-0.06,0 -0.1,0.01 -0.13,0.02 -0.04,0.01 -0.08,0.04 -0.12,0.07l0 -0.09 -0.8 0zm1.2 0l0 1.19 0.8 0 0 -0.74c0,-0.04 0.03,-0.08 0.08,-0.12 0.03,-0.02 0.08,-0.05 0.16,-0.09l0 -0.24c-0.05,0 -0.09,0.01 -0.13,0.02 -0.03,0.01 -0.07,0.04 -0.11,0.07l0 -0.09 -0.8 0zm1.93 0.66l0.59 0c0,-0.2 -0.05,-0.37 -0.14,-0.48 -0.1,-0.15 -0.28,-0.22 -0.52,-0.22 -0.18,0 -0.33,0.05 -0.45,0.15 -0.15,0.12 -0.22,0.28 -0.22,0.49 0,0.21 0.08,0.37 0.24,0.47 0.14,0.09 0.32,0.14 0.56,0.14 0.08,0 0.16,-0.01 0.25,-0.03 0.1,-0.02 0.19,-0.04 0.28,-0.08l0 -0.17c-0.12,0.04 -0.22,0.05 -0.3,0.05 -0.1,0 -0.18,-0.03 -0.23,-0.08 -0.04,-0.05 -0.06,-0.13 -0.06,-0.24zm0 -0.2c0,-0.09 0.01,-0.15 0.03,-0.19 0.03,-0.05 0.06,-0.07 0.1,-0.07 0.04,0 0.07,0.02 0.09,0.06 0.03,0.05 0.05,0.11 0.05,0.2l-0.27 0zm0.73 0.73l0.8 0 0 -0.8c0,-0.04 0.01,-0.07 0.02,-0.09 0.02,-0.02 0.05,-0.03 0.08,-0.03 0.04,0 0.06,0.01 0.08,0.03 0.02,0.02 0.03,0.05 0.03,0.09l0 0.8 0.73 0 0 -0.8c0,-0.15 -0.05,-0.26 -0.14,-0.34 -0.08,-0.05 -0.17,-0.08 -0.28,-0.08 -0.1,0 -0.19,0 -0.28,0.02 -0.08,0.01 -0.16,0.04 -0.24,0.07l0 -0.06 -0.8 0 0 1.19zm3.57 0l0 -0.94c0,-0.09 -0.08,-0.16 -0.25,-0.22 -0.14,-0.06 -0.29,-0.08 -0.43,-0.08 -0.13,0 -0.26,0.01 -0.39,0.02 -0.13,0.02 -0.24,0.05 -0.32,0.08l0 0.14c0.04,0 0.1,0 0.19,-0.01 0.09,-0.01 0.15,-0.02 0.19,-0.02 0.06,0 0.11,0.01 0.14,0.03 0.04,0.01 0.05,0.05 0.05,0.09 0,0.02 0,0.03 0,0.05 -0.25,0 -0.44,0.03 -0.57,0.08 -0.15,0.06 -0.23,0.17 -0.23,0.31 0,0.15 0.03,0.26 0.08,0.33 0.09,0.09 0.25,0.14 0.49,0.14l1.05 0zm-0.81 -0.21c-0.04,0 -0.07,-0.01 -0.1,-0.03 -0.03,-0.02 -0.05,-0.05 -0.05,-0.09l0 -0.18c0,-0.04 0.02,-0.07 0.04,-0.08 0.03,-0.02 0.07,-0.03 0.11,-0.04l0 0.42z"/>
  <polygon class="fil2" points="0,2.51 11.64,2.51 11.64,3.88 0,3.88 "/>
  <path class="fil3" d="M0.39 3.54l-0.15 -0.33 -0.03 -0.07 0 0.23 0 0.17 -0.1 0 0 -0.55 0.13 0 0.15 0.33 0.03 0.07 0 -0.25 0 -0.15 0.1 0 0 0.55 -0.13 0zm0.24 0l0 -0.55 0.33 0 0 0.09 -0.22 0 0 0.14 0.21 0 0 0.08 -0.21 0 0 0.16 0.22 0 0 0.08 -0.33 0zm0.44 0l0 -0.07 0.26 -0.38 -0.25 0 0 -0.1 0.38 0 0 0.09 -0.26 0.37 0.26 0 0 0.09 -0.39 0zm0.5 -0.46l0 -0.09 0.35 0 0 0.09 -0.12 0 0 0.38 0.12 0 0 0.08 -0.35 0 0 -0.08 0.12 0 0 -0.38 -0.12 0zm0.85 0.3c0,0.03 -0.01,0.05 -0.02,0.08 -0.01,0.02 -0.03,0.04 -0.05,0.05 -0.02,0.02 -0.04,0.03 -0.07,0.03 -0.03,0.01 -0.06,0.01 -0.09,0.01 -0.03,0 -0.06,0 -0.08,0 -0.03,0 -0.06,-0.01 -0.08,-0.02l0 -0.1c0.01,0 0.02,0.01 0.04,0.01 0.01,0.01 0.02,0.01 0.04,0.01 0.01,0.01 0.03,0.01 0.04,0.01 0.02,0 0.03,0 0.04,0 0.02,0 0.04,0 0.05,0 0.02,-0.01 0.03,-0.01 0.04,-0.02 0.01,0 0.01,-0.01 0.02,-0.02 0,-0.01 0,-0.02 0,-0.03 0,-0.01 0,-0.02 -0.01,-0.03 -0.01,-0.01 -0.02,-0.02 -0.03,-0.02 -0.01,-0.01 -0.03,-0.02 -0.04,-0.02 -0.02,-0.01 -0.04,-0.01 -0.05,-0.02 -0.02,-0.01 -0.04,-0.02 -0.05,-0.02 -0.02,-0.01 -0.03,-0.02 -0.05,-0.03 -0.01,-0.02 -0.02,-0.03 -0.03,-0.05 -0.01,-0.01 -0.01,-0.03 -0.01,-0.06 0,-0.02 0,-0.04 0.01,-0.06 0.01,-0.02 0.02,-0.04 0.04,-0.05 0.02,-0.02 0.04,-0.03 0.07,-0.04 0.02,0 0.05,-0.01 0.09,-0.01 0.01,0 0.02,0 0.04,0 0.01,0 0.02,0.01 0.03,0.01 0.01,0 0.02,0 0.04,0 0.01,0 0.02,0.01 0.03,0.01l0 0.09c-0.01,0 -0.02,0 -0.03,-0.01 -0.02,0 -0.03,0 -0.04,0 -0.01,0 -0.02,-0.01 -0.03,-0.01 -0.01,0 -0.02,0 -0.04,0 -0.01,0 -0.03,0 -0.04,0.01 -0.01,0 -0.03,0 -0.03,0.01 -0.01,0 -0.02,0.01 -0.02,0.02 0,0 -0.01,0.01 -0.01,0.02 0,0.01 0.01,0.02 0.02,0.03 0,0.01 0.01,0.02 0.03,0.02 0.01,0.01 0.02,0.02 0.04,0.02 0.02,0.01 0.03,0.02 0.05,0.02 0.02,0.01 0.03,0.02 0.05,0.02 0.02,0.01 0.03,0.02 0.04,0.04 0.02,0.01 0.03,0.02 0.03,0.04 0.01,0.01 0.02,0.03 0.02,0.06zm0.37 0.16l-0.17 -0.26 0 0.26 -0.1 0 0 -0.55 0.1 0 0 0.25 0.17 -0.25 0.12 0 -0.18 0.27 0.19 0.28 -0.13 0zm0.61 -0.27c0,0.05 -0.01,0.09 -0.02,0.13 -0.01,0.03 -0.03,0.06 -0.05,0.09 -0.02,0.02 -0.04,0.04 -0.07,0.05 -0.03,0.01 -0.05,0.01 -0.09,0.01 -0.07,0 -0.12,-0.02 -0.16,-0.07 -0.04,-0.05 -0.06,-0.12 -0.06,-0.21 0,-0.05 0.01,-0.09 0.02,-0.13 0.01,-0.04 0.03,-0.07 0.05,-0.09 0.02,-0.02 0.04,-0.04 0.07,-0.05 0.03,-0.01 0.06,-0.02 0.09,-0.02 0.07,0 0.13,0.03 0.17,0.07 0.03,0.05 0.05,0.12 0.05,0.22zm-0.11 0c0,-0.07 -0.01,-0.11 -0.03,-0.15 -0.01,-0.03 -0.04,-0.04 -0.08,-0.04 -0.02,0 -0.04,0 -0.05,0.01 -0.02,0.01 -0.03,0.02 -0.04,0.03 -0.01,0.02 -0.02,0.04 -0.02,0.06 0,0.03 -0.01,0.05 -0.01,0.09 0,0.06 0.01,0.11 0.03,0.14 0.02,0.03 0.05,0.05 0.09,0.05 0.02,0 0.03,0 0.05,-0.01 0.01,-0.01 0.02,-0.02 0.03,-0.04 0.01,-0.01 0.02,-0.03 0.02,-0.06 0.01,-0.02 0.01,-0.05 0.01,-0.08zm0.43 0.27l-0.14 0 -0.16 -0.55 0.11 0 0.1 0.33 0.03 0.11 0.03 -0.11 0.09 -0.33 0.11 0 -0.17 0.55zm0.53 0l-0.03 -0.1 -0.19 0 -0.03 0.1 -0.1 0 0.16 -0.55 0.15 0 0.16 0.55 -0.12 0zm-0.12 -0.45l-0.08 0.26 0.15 0 -0.07 -0.26zm0.05 -0.16l-0.1 0 0.09 -0.09 0.14 0 -0.13 0.09zm0.91 0.38l0 -0.09 0.2 0 0 0.3c-0.03,0.01 -0.06,0.02 -0.08,0.03 -0.03,0 -0.06,0 -0.09,0 -0.04,0 -0.08,0 -0.11,-0.01 -0.03,-0.02 -0.05,-0.03 -0.08,-0.06 -0.02,-0.02 -0.03,-0.05 -0.04,-0.08 -0.02,-0.04 -0.02,-0.08 -0.02,-0.12 0,-0.05 0,-0.09 0.02,-0.13 0.01,-0.03 0.03,-0.07 0.05,-0.09 0.02,-0.03 0.05,-0.05 0.08,-0.06 0.04,-0.01 0.08,-0.02 0.12,-0.02 0.02,0 0.05,0 0.07,0.01 0.03,0 0.05,0.01 0.07,0.01l0 0.11c-0.02,-0.01 -0.04,-0.02 -0.06,-0.03 -0.03,0 -0.06,-0.01 -0.08,-0.01 -0.03,0 -0.05,0.01 -0.07,0.02 -0.02,0.01 -0.04,0.02 -0.05,0.04 -0.01,0.01 -0.02,0.03 -0.03,0.06 -0.01,0.02 -0.01,0.05 -0.01,0.08 0,0.03 0,0.06 0.01,0.08 0,0.02 0.01,0.04 0.02,0.06 0.02,0.02 0.03,0.03 0.05,0.04 0.02,0.01 0.04,0.01 0.07,0.01 0.01,0 0.01,0 0.02,0 0,0 0,0 0.01,0 0,0 0.01,0 0.01,0 0,-0.01 0.01,-0.01 0.01,-0.01l0 -0.14 -0.09 0zm0.31 0.23l0 -0.55 0.34 0 0 0.09 -0.23 0 0 0.14 0.22 0 0 0.08 -0.22 0 0 0.16 0.23 0 0 0.08 -0.34 0zm0.86 -0.27c0,0.05 0,0.09 -0.01,0.13 -0.01,0.03 -0.03,0.06 -0.05,0.09 -0.02,0.02 -0.05,0.04 -0.07,0.05 -0.03,0.01 -0.06,0.01 -0.09,0.01 -0.07,0 -0.13,-0.02 -0.17,-0.07 -0.03,-0.05 -0.05,-0.12 -0.05,-0.21 0,-0.05 0,-0.09 0.02,-0.13 0.01,-0.04 0.02,-0.07 0.04,-0.09 0.03,-0.02 0.05,-0.04 0.08,-0.05 0.02,-0.01 0.05,-0.02 0.08,-0.02 0.08,0 0.13,0.03 0.17,0.07 0.04,0.05 0.05,0.12 0.05,0.22zm-0.11 0c0,-0.07 0,-0.11 -0.02,-0.15 -0.02,-0.03 -0.05,-0.04 -0.09,-0.04 -0.02,0 -0.04,0 -0.05,0.01 -0.01,0.01 -0.03,0.02 -0.03,0.03 -0.01,0.02 -0.02,0.04 -0.02,0.06 -0.01,0.03 -0.01,0.05 -0.01,0.09 0,0.06 0.01,0.11 0.03,0.14 0.01,0.03 0.04,0.05 0.08,0.05 0.02,0 0.04,0 0.05,-0.01 0.02,-0.01 0.03,-0.02 0.04,-0.04 0.01,-0.01 0.01,-0.03 0.02,-0.06 0,-0.02 0,-0.05 0,-0.08zm0.19 -0.19l0 -0.09 0.35 0 0 0.09 -0.12 0 0 0.38 0.12 0 0 0.08 -0.35 0 0 -0.08 0.13 0 0 -0.38 -0.13 0zm0.73 0.46l-0.15 -0.33 -0.03 -0.07 0 0.23 0 0.17 -0.09 0 0 -0.55 0.13 0 0.15 0.33 0.02 0.07 0 -0.25 0 -0.15 0.1 0 0 0.55 -0.13 0zm0.35 -0.46l0 0.15 0.21 0 0 0.09 -0.21 0 0 0.22 -0.11 0 0 -0.55 0.33 0 0 0.09 -0.22 0zm0.75 0.19c0,0.05 0,0.09 -0.01,0.13 -0.02,0.03 -0.03,0.06 -0.05,0.09 -0.02,0.02 -0.05,0.04 -0.07,0.05 -0.03,0.01 -0.06,0.01 -0.09,0.01 -0.08,0 -0.13,-0.02 -0.17,-0.07 -0.03,-0.05 -0.05,-0.12 -0.05,-0.21 0,-0.05 0,-0.09 0.02,-0.13 0.01,-0.04 0.02,-0.07 0.04,-0.09 0.02,-0.02 0.05,-0.04 0.08,-0.05 0.02,-0.01 0.05,-0.02 0.08,-0.02 0.08,0 0.13,0.03 0.17,0.07 0.04,0.05 0.05,0.12 0.05,0.22zm-0.11 0c0,-0.07 0,-0.11 -0.02,-0.15 -0.02,-0.03 -0.05,-0.04 -0.09,-0.04 -0.02,0 -0.04,0 -0.05,0.01 -0.01,0.01 -0.03,0.02 -0.04,0.03 0,0.02 -0.01,0.04 -0.02,0.06 0,0.03 0,0.05 0,0.09 0,0.06 0.01,0.11 0.02,0.14 0.02,0.03 0.05,0.05 0.09,0.05 0.02,0 0.04,0 0.05,-0.01 0.02,-0.01 0.03,-0.02 0.04,-0.04 0.01,-0.01 0.01,-0.03 0.02,-0.06 0,-0.02 0,-0.05 0,-0.08zm0.46 0.27l-0.07 -0.17c-0.01,-0.02 -0.02,-0.03 -0.03,-0.04 -0.02,-0.01 -0.03,-0.01 -0.05,-0.01l-0.02 0 0 0.22 -0.11 0 0 -0.55 0.17 0c0.03,0 0.05,0 0.08,0.01 0.02,0 0.05,0.01 0.06,0.02 0.02,0.02 0.03,0.03 0.04,0.05 0.01,0.02 0.02,0.05 0.02,0.07 0,0.02 -0.01,0.04 -0.01,0.06 -0.01,0.01 -0.02,0.03 -0.03,0.04 -0.01,0.01 -0.02,0.02 -0.04,0.03 -0.01,0 -0.03,0.01 -0.04,0.01 0.01,0 0.02,0.01 0.03,0.02 0.01,0.02 0.03,0.04 0.04,0.06l0.09 0.18 -0.13 0zm-0.02 -0.39c0,-0.02 -0.01,-0.04 -0.03,-0.05 -0.02,-0.02 -0.04,-0.02 -0.08,-0.02l-0.04 0 0 0.15 0.04 0c0.02,0 0.03,0 0.05,0 0.01,0 0.02,-0.01 0.03,-0.02 0.01,0 0.02,-0.01 0.02,-0.02 0.01,-0.01 0.01,-0.02 0.01,-0.04zm0.53 0.39l-0.01 -0.31 0 -0.12 -0.03 0.08 -0.06 0.19 -0.06 0 -0.06 -0.19 -0.02 -0.08 -0.01 0.12 0 0.31 -0.09 0 0.02 -0.55 0.12 0 0.05 0.16 0.02 0.09 0.03 -0.09 0.05 -0.16 0.12 0 0.03 0.55 -0.1 0zm0.48 0l-0.03 -0.1 -0.2 0 -0.03 0.1 -0.1 0 0.16 -0.55 0.15 0 0.16 0.55 -0.11 0zm-0.13 -0.45l-0.07 0.26 0.14 0 -0.07 -0.26zm0.53 -0.01l0 0.46 -0.1 0 0 -0.46 -0.15 0 0 -0.09 0.41 0 0 0.09 -0.16 0zm0.25 0l0 -0.09 0.35 0 0 0.09 -0.12 0 0 0.38 0.12 0 0 0.08 -0.35 0 0 -0.08 0.13 0 0 -0.38 -0.13 0zm0.74 0.46l-0.16 -0.26 0 0.26 -0.11 0 0 -0.55 0.11 0 0 0.25 0.16 -0.25 0.13 0 -0.19 0.27 0.2 0.28 -0.14 0zm0.52 0l-0.04 -0.1 -0.19 0 -0.03 0.1 -0.1 0 0.16 -0.55 0.15 0 0.16 0.55 -0.11 0zm-0.13 -0.45l-0.07 0.26 0.14 0 -0.07 -0.26z"/>
 </g>
</svg>
