<?xml version="1.0" encoding="UTF-8"?>
<!DOCTYPE svg PUBLIC "-//W3C//DTD SVG 1.0//EN" "http://www.w3.org/TR/2001/REC-SVG-20010904/DTD/svg10.dtd">
<!-- Creator: CorelDRAW 2019 (64-Bit Evaluation Version) -->
<svg xmlns="http://www.w3.org/2000/svg" xml:space="preserve" width="297px" height="64px" version="1.0" style="shape-rendering:geometricPrecision; text-rendering:geometricPrecision; image-rendering:optimizeQuality; fill-rule:evenodd; clip-rule:evenodd"
viewBox="0 0 21.29 4.59"
 xmlns:xlink="http://www.w3.org/1999/xlink">
 <defs>
  <style type="text/css">
   <![CDATA[
    .fil0 {fill:#61A375}
    .fil1 {fill:white;fill-rule:nonzero}
   ]]>
  </style>
 </defs>
 <g id="Layer_x0020_1">
  <metadata id="CorelCorpID_0Corel-Layer"/>
  <polygon class="fil0" points="0,0 21.29,0 21.29,4.59 0,4.59 "/>
  <path class="fil1" d="M1.44 1.58l0 0.44 0.2 0 0 1.72 1.46 0 0 -1.72 0.19 0 0 -0.44 -0.19 0 0 -0.77 -0.45 0c-0.11,0.23 -0.27,0.41 -0.47,0.53 -0.18,0.12 -0.43,0.2 -0.74,0.24zm3.49 1.21l1.08 0c0,-0.39 -0.08,-0.68 -0.24,-0.9 -0.2,-0.26 -0.52,-0.39 -0.96,-0.39 -0.32,0 -0.59,0.09 -0.82,0.27 -0.27,0.22 -0.4,0.52 -0.4,0.91 0,0.38 0.14,0.67 0.43,0.86 0.26,0.16 0.6,0.24 1.03,0.24 0.14,0 0.29,-0.01 0.45,-0.04 0.19,-0.04 0.36,-0.09 0.51,-0.16l0 -0.3c-0.21,0.06 -0.39,0.09 -0.55,0.09 -0.18,0 -0.32,-0.05 -0.4,-0.15 -0.09,-0.09 -0.13,-0.24 -0.13,-0.43zm0 -0.39c0,-0.14 0.02,-0.26 0.07,-0.34 0.05,-0.09 0.11,-0.13 0.17,-0.13 0.07,0 0.13,0.04 0.18,0.12 0.05,0.09 0.08,0.2 0.08,0.35l-0.5 0zm1.34 -0.82l0 2.16 1.47 0 0 -1.35c0,-0.07 0.05,-0.14 0.15,-0.21 0.05,-0.03 0.15,-0.09 0.29,-0.16l0 -0.44c-0.09,0 -0.17,0.01 -0.23,0.03 -0.06,0.02 -0.13,0.06 -0.21,0.13l0 -0.16 -1.47 0zm2.19 0l0 2.16 1.46 0 0 -1.35c0,-0.07 0.06,-0.14 0.16,-0.21 0.05,-0.03 0.14,-0.09 0.29,-0.16l0 -0.44c-0.1,0 -0.17,0.01 -0.24,0.03 -0.06,0.02 -0.13,0.06 -0.21,0.13l0 -0.16 -1.46 0zm3.53 1.21l1.08 0c0,-0.39 -0.08,-0.68 -0.24,-0.9 -0.2,-0.26 -0.52,-0.39 -0.97,-0.39 -0.31,0 -0.59,0.09 -0.82,0.27 -0.26,0.22 -0.4,0.52 -0.4,0.91 0,0.38 0.15,0.67 0.44,0.86 0.25,0.16 0.59,0.24 1.03,0.24 0.14,0 0.29,-0.01 0.44,-0.04 0.2,-0.04 0.37,-0.09 0.52,-0.16l0 -0.3c-0.21,0.06 -0.39,0.09 -0.55,0.09 -0.19,0 -0.32,-0.05 -0.41,-0.15 -0.08,-0.09 -0.12,-0.24 -0.12,-0.43zm0 -0.39c0,-0.14 0.02,-0.26 0.07,-0.34 0.04,-0.09 0.1,-0.13 0.17,-0.13 0.07,0 0.13,0.04 0.18,0.12 0.05,0.09 0.07,0.2 0.07,0.35l-0.49 0zm1.34 1.34l1.46 0 0 -1.46c0,-0.07 0.02,-0.12 0.05,-0.16 0.03,-0.04 0.07,-0.05 0.14,-0.05 0.06,0 0.11,0.01 0.14,0.05 0.04,0.04 0.05,0.1 0.05,0.16l0 1.46 1.34 0 0 -1.46c0,-0.27 -0.09,-0.47 -0.26,-0.61 -0.13,-0.11 -0.3,-0.16 -0.51,-0.16 -0.18,0 -0.35,0.01 -0.51,0.04 -0.15,0.03 -0.3,0.07 -0.44,0.13l0 -0.1 -1.46 0 0 2.16zm6.52 0l0 -1.71c0,-0.16 -0.15,-0.29 -0.44,-0.4 -0.27,-0.11 -0.53,-0.16 -0.79,-0.16 -0.25,0 -0.49,0.02 -0.72,0.06 -0.23,0.03 -0.43,0.08 -0.59,0.14l0 0.25c0.07,0 0.19,-0.01 0.35,-0.03 0.16,-0.01 0.28,-0.02 0.36,-0.02 0.11,0 0.19,0.01 0.26,0.04 0.06,0.04 0.09,0.09 0.09,0.18 0,0.03 -0.01,0.06 -0.01,0.09 -0.47,0 -0.81,0.04 -1.05,0.14 -0.28,0.12 -0.42,0.31 -0.42,0.58 0,0.27 0.06,0.47 0.16,0.59 0.15,0.17 0.45,0.25 0.89,0.25l1.91 0zm-1.46 -0.38c-0.08,0 -0.15,-0.02 -0.2,-0.05 -0.06,-0.04 -0.08,-0.09 -0.08,-0.16l0 -0.34c0,-0.06 0.02,-0.11 0.07,-0.15 0.05,-0.03 0.12,-0.05 0.21,-0.06l0 0.76z"/>
 </g>
</svg>
